<?xml version="1.0" encoding="UTF-8"?>
<svg version="1.1" xmlns="http://www.w3.org/2000/svg" width="100" height="100"  viewBox="0 -30 100 130">
<path d="M0 0 C2.0625 0.4375 2.0625 0.4375 4 1 C4.08089542 3.77141717 4.14044062 6.54047819 4.1875 9.3125 C4.21263672 10.09818359 4.23777344 10.88386719 4.26367188 11.69335938 C4.27333984 12.45068359 4.28300781 13.20800781 4.29296875 13.98828125 C4.3086792 14.68477783 4.32438965 15.38127441 4.34057617 16.09887695 C3.89567541 18.58234806 2.927086 19.42664746 1 21 C-1.52475462 22.26237731 -3.31200466 22.09856404 -6.125 22.0625 C-7.03507812 22.05347656 -7.94515625 22.04445313 -8.8828125 22.03515625 C-9.93082031 22.01775391 -9.93082031 22.01775391 -11 22 C-11.268125 22.78375 -11.53625 23.5675 -11.8125 24.375 C-13 27 -13 27 -16 29 C-20.51870169 29.51853954 -23.68035572 29.69360888 -27.5 27.0625 C-30.42316153 23.48162712 -30.8425501 21.66348971 -30.51953125 17.15625 C-29.65668267 13.575104 -27.96735665 12.06424811 -25 10 C-21.23140334 8.71707348 -19.52195404 8.8193236 -15.75 10.125 C-12.69133631 12.21045251 -11.95045616 13.4833122 -11 17 C-7.7 17 -4.4 17 -1 17 C-1.01160156 15.85660156 -1.02320312 14.71320313 -1.03515625 13.53515625 C-1.04453288 12.04427246 -1.05363321 10.55338691 -1.0625 9.0625 C-1.07087891 8.30775391 -1.07925781 7.55300781 -1.08789062 6.77539062 C-1.09652441 4.85005687 -1.05224333 2.92464419 -1 1 C-0.67 0.67 -0.34 0.34 0 0 Z M-21 18 C-21 18.66 -21 19.32 -21 20 C-20.34 19.67 -19.68 19.34 -19 19 C-19.66 18.67 -20.32 18.34 -21 18 Z " fill="#8F3FDC" transform="translate(36,65)"/>
<path d="M0 0 C1.98 0.495 1.98 0.495 4 1 C4 6.28 4 11.56 4 17 C7.3 17 10.6 17 14 17 C14.20625 16.236875 14.4125 15.47375 14.625 14.6875 C16.47906633 11.06364309 18.19359805 10.31760067 22 9 C25.96239846 9 27.64791407 9.74741662 30.875 12.0625 C33.28271947 15.39081809 33.68320324 17.06509042 33.43359375 21.06640625 C32.75194607 24.10618646 31.19767713 25.86696044 29 28 C25.78241676 29.60879162 22.47914605 29.61201039 19 29 C16 26.625 16 26.625 14 24 C14 23.34 14 22.68 14 22 C13.32453125 22.02320312 12.6490625 22.04640625 11.953125 22.0703125 C10.61507812 22.09738281 10.61507812 22.09738281 9.25 22.125 C8.36828125 22.14820312 7.4865625 22.17140625 6.578125 22.1953125 C3.85093574 21.98870725 2.28684592 21.47305841 0 20 C-1.64838944 16.70322112 -1.14272738 13.05683956 -1.125 9.4375 C-1.12886719 8.64408203 -1.13273437 7.85066406 -1.13671875 7.03320312 C-1.12663067 1.12663067 -1.12663067 1.12663067 0 0 Z M23 18 C22.67 18.66 22.34 19.32 22 20 C22.66 20 23.32 20 24 20 C23.67 19.34 23.34 18.68 23 18 Z " fill="#2264BC" transform="translate(61,65)"/>
<path d="M0 0 C2.99264813 1.29786424 3.81373741 2.32182832 6 5 C6.79790139 8.17438468 6.765908 10.82119386 6 14 C3.6066679 17.37882179 1.96721278 18.67073608 -1.9375 20 C-5.80621704 20 -7.81127626 19.17412982 -11 17 C-12.375 14.3125 -12.375 14.3125 -13 12 C-16.3 12 -19.6 12 -23 12 C-23 17.28 -23 22.56 -23 28 C-24.32 28.33 -25.64 28.66 -27 29 C-29.102003 26.897997 -28.23109795 22.51701417 -28.25 19.625 C-28.270625 18.84382813 -28.29125 18.06265625 -28.3125 17.2578125 C-28.35244516 11.42581985 -28.35244516 11.42581985 -26.60449219 9.31396484 C-23.63934863 6.88572342 -21.6315773 6.88933875 -17.875 6.9375 C-16.96492188 6.94652344 -16.05484375 6.95554687 -15.1171875 6.96484375 C-14.41851562 6.97644531 -13.71984375 6.98804688 -13 7 C-12.731875 6.21625 -12.46375 5.4325 -12.1875 4.625 C-9.78245659 -0.69141175 -5.24037916 -0.92767541 0 0 Z M-5 9 C-4.34 9.66 -3.68 10.32 -3 11 C-3 10.34 -3 9.68 -3 9 C-3.66 9 -4.32 9 -5 9 Z " fill="#2365BD" transform="translate(88,6)"/>
<path d="M0 0 C3 2.375 3 2.375 5 5 C5 5.66 5 6.32 5 7 C5.67546875 6.97679687 6.3509375 6.95359375 7.046875 6.9296875 C8.38492187 6.90261719 8.38492187 6.90261719 9.75 6.875 C10.63171875 6.85179687 11.5134375 6.82859375 12.421875 6.8046875 C15.14906426 7.01129275 16.71315408 7.52694159 19 9 C20.65497356 12.30994713 20.10084335 15.99123 20.0625 19.625 C20.05798828 20.42679688 20.05347656 21.22859375 20.04882812 22.0546875 C20.03703168 24.03649006 20.01909605 26.01825433 20 28 C18.0625 28.5625 18.0625 28.5625 16 29 C15 28 15 28 14.90234375 24.40234375 C14.9090178 22.91403133 14.92097817 21.42573568 14.9375 19.9375 C14.94201172 19.17888672 14.94652344 18.42027344 14.95117188 17.63867188 C14.9629932 15.75908129 14.98092922 13.87953101 15 12 C11.7 12 8.4 12 5 12 C4.690625 13.1446875 4.690625 13.1446875 4.375 14.3125 C2.52093367 17.93635691 0.80640195 18.68239933 -3 20 C-6.96239846 20 -8.64791407 19.25258338 -11.875 16.9375 C-14.28271947 13.60918191 -14.68320324 11.93490958 -14.43359375 7.93359375 C-13.75194607 4.89381354 -12.19767713 3.13303956 -10 1 C-6.78241676 -0.60879162 -3.47914605 -0.61201039 0 0 Z M-5 9 C-4.67 9.66 -4.34 10.32 -4 11 C-3.67 10.34 -3.34 9.68 -3 9 C-3.66 9 -4.32 9 -5 9 Z " fill="#8D3FDB" transform="translate(20,6)"/>
<path d="M0 0 C2.09375 0.6640625 2.09375 0.6640625 4.65625 2.7265625 C6.52852144 6.55250849 6.89566132 9.48568246 6.09375 13.6640625 C4.65625 16.6015625 4.65625 16.6015625 2.09375 18.6640625 C-0.98691702 19.71043707 -3.67160503 20.05512493 -6.90625 19.6640625 C-9.6233271 18.30275707 -10.83120729 17.00513632 -12.90625 14.6640625 C-12.90625 13.6740625 -12.90625 12.6840625 -12.90625 11.6640625 C-14.88625 11.6640625 -16.86625 11.6640625 -18.90625 11.6640625 C-18.90625 10.3440625 -18.90625 9.0240625 -18.90625 7.6640625 C-16.92625 7.6640625 -14.94625 7.6640625 -12.90625 7.6640625 C-12.844375 7.0865625 -12.7825 6.5090625 -12.71875 5.9140625 C-10.48514591 -0.27130267 -5.81969239 -0.98934771 0 0 Z M-3.90625 8.6640625 C-2.90625 10.6640625 -2.90625 10.6640625 -2.90625 10.6640625 Z " fill="#2264BC" transform="translate(87.90625,40.3359375)"/>
<path d="M0 0 C2.44915803 1.4383944 3.9742848 2.92605349 6 5 C6 5.99 6 6.98 6 8 C7.98 8 9.96 8 12 8 C12 9.32 12 10.64 12 12 C10.02 12 8.04 12 6 12 C5.9071875 12.86625 5.9071875 12.86625 5.8125 13.75 C4.58408421 17.15176681 3.14518815 18.23083167 0 20 C-4.61294249 20.42758112 -7.93304325 19.85877007 -11.5625 16.9375 C-13.42119256 13.13930216 -13.8471185 10.15171936 -13 6 C-9.67099375 0.604714 -6.25269403 -0.73561106 0 0 Z M-4 9 C-3 11 -3 11 -3 11 Z " fill="#8F3FDD" transform="translate(19,40)"/>
<path d="M0 0 C2.9921875 1.55859375 2.9921875 1.55859375 5.875 3.4375 C6.84179688 4.05496094 7.80859375 4.67242187 8.8046875 5.30859375 C9.89136719 6.14583984 9.89136719 6.14583984 11 7 C11 7.66 11 8.32 11 9 C8.78268064 10.39820138 6.55461846 11.76763358 4.3125 13.125 C3.68666016 13.52332031 3.06082031 13.92164063 2.41601562 14.33203125 C-2.30612161 17.15047965 -2.30612161 17.15047965 -5.59375 16.4375 C-6.3878125 15.963125 -7.181875 15.48875 -8 15 C-8.95519531 14.50242187 -9.91039062 14.00484375 -10.89453125 13.4921875 C-11.85746094 12.95851563 -12.82039063 12.42484375 -13.8125 11.875 C-15.27623047 11.06675781 -15.27623047 11.06675781 -16.76953125 10.2421875 C-17.50558594 9.83226562 -18.24164063 9.42234375 -19 9 C-17.66736376 5.00209129 -15.89342837 4.38181959 -12.3125 2.25 C-11.27738281 1.61578125 -10.24226563 0.9815625 -9.17578125 0.328125 C-5.42167009 -1.24185999 -3.85564312 -1.19063881 0 0 Z " fill="#5B50CC" transform="translate(54,32)"/>
<path d="M0 0 C2.00204538 0.66049884 4.00164403 1.32842136 6 2 C7.37285156 2.41572266 7.37285156 2.41572266 8.7734375 2.83984375 C12.03776682 4.21713585 13.76873641 5.20227221 16 8 C17.2993201 14.21716158 16.55884857 20.72847721 16 27 C14.45574675 26.25534033 12.91472994 25.50396805 11.375 24.75 C10.51648437 24.33234375 9.65796875 23.9146875 8.7734375 23.484375 C7.85820313 22.99453125 6.94296875 22.5046875 6 22 C4.906875 21.4740625 3.81375 20.948125 2.6875 20.40625 C0 18 0 18 -0.47412109 15.99316406 C-0.59171997 13.55183191 -0.5236508 11.18939771 -0.375 8.75 C-0.34792969 7.90953125 -0.32085937 7.0690625 -0.29296875 6.203125 C-0.22244109 4.13431366 -0.11482367 2.06682607 0 0 Z " fill="#684CD0" transform="translate(33,42)"/>
<path d="M0 0 C1.80496803 12.39411381 1.80496803 12.39411381 0 18 C-3.82963105 22.56550583 -9.57428084 24.85480237 -15 27 C-15.33 27 -15.66 27 -16 27 C-16 20.73 -16 14.46 -16 8 C-12.596875 6.02 -12.596875 6.02 -9.125 4 C-8.05596436 3.37351563 -8.05596436 3.37351563 -6.96533203 2.734375 C-2.22222222 0 -2.22222222 0 0 0 Z " fill="#4B56C8" transform="translate(67,42)"/>
<path d="M0 0 C1.98 0.495 1.98 0.495 4 1 C4 6.28 4 11.56 4 17 C7.3 17 10.6 17 14 17 C14 18.65 14 20.3 14 22 C12.41705218 22.05437607 10.83355744 22.09296271 9.25 22.125 C8.36828125 22.14820312 7.4865625 22.17140625 6.578125 22.1953125 C3.85093574 21.98870725 2.28684592 21.47305841 0 20 C-1.64838944 16.70322112 -1.14272738 13.05683956 -1.125 9.4375 C-1.12886719 8.64408203 -1.13273437 7.85066406 -1.13671875 7.03320312 C-1.12663067 1.12663067 -1.12663067 1.12663067 0 0 Z M16 12 C16.99 12.33 17.98 12.66 19 13 C17.02 13.99 17.02 13.99 15 15 C15.33 14.01 15.66 13.02 16 12 Z M14 15 C14.99 15.495 14.99 15.495 16 16 C15.67 16.66 15.34 17.32 15 18 C14.67 17.01 14.34 16.02 14 15 Z " fill="#4757C7" transform="translate(61,65)"/>
<path d="M0 0 C2.0625 0.4375 2.0625 0.4375 4 1 C4.08089542 3.77141717 4.14044062 6.54047819 4.1875 9.3125 C4.22520508 10.49102539 4.22520508 10.49102539 4.26367188 11.69335938 C4.27817383 12.8293457 4.27817383 12.8293457 4.29296875 13.98828125 C4.31653442 15.03302612 4.31653442 15.03302612 4.34057617 16.09887695 C3.89267111 18.59911833 2.99182042 19.47018763 1 21 C-1.69921875 21.29296875 -1.69921875 21.29296875 -4.6875 21.1875 C-6.17830078 21.14689453 -6.17830078 21.14689453 -7.69921875 21.10546875 C-8.45847656 21.07066406 -9.21773437 21.03585938 -10 21 C-10.33 19.68 -10.66 18.36 -11 17 C-7.7 17 -4.4 17 -1 17 C-1.01160156 15.85660156 -1.02320313 14.71320313 -1.03515625 13.53515625 C-1.04453288 12.04427246 -1.05363321 10.55338691 -1.0625 9.0625 C-1.07087891 8.30775391 -1.07925781 7.55300781 -1.08789062 6.77539062 C-1.09652441 4.85005687 -1.05224333 2.92464419 -1 1 C-0.67 0.67 -0.34 0.34 0 0 Z " fill="#7049D1" transform="translate(36,65)"/>
<path d="M0 0 C0.91007812 0.00902344 1.82015625 0.01804687 2.7578125 0.02734375 C3.45648438 0.03894531 4.15515625 0.05054688 4.875 0.0625 C4.545 0.7225 4.215 1.3825 3.875 2.0625 C1.235 2.3925 -1.405 2.7225 -4.125 3.0625 C-4.455 9.0025 -4.785 14.9425 -5.125 21.0625 C-6.445 21.3925 -7.765 21.7225 -9.125 22.0625 C-11.227003 19.960497 -10.35609795 15.57951417 -10.375 12.6875 C-10.395625 11.90632813 -10.41625 11.12515625 -10.4375 10.3203125 C-10.47744516 4.48831985 -10.47744516 4.48831985 -8.72949219 2.37646484 C-5.76434863 -0.05177658 -3.7565773 -0.04816125 0 0 Z " fill="#4659C8" transform="translate(70.125,12.9375)"/>
<path d="M0 0 C1.95319453 1.5567497 2.89440221 2.41054479 3.34057617 4.90112305 C3.32486572 5.59761963 3.30915527 6.29411621 3.29296875 7.01171875 C3.28330078 7.76904297 3.27363281 8.52636719 3.26367188 9.30664062 C3.23853516 10.09232422 3.21339844 10.87800781 3.1875 11.6875 C3.17396484 12.48478516 3.16042969 13.28207031 3.14648438 14.10351562 C3.11117089 16.06929967 3.05736447 18.03473582 3 20 C1.0625 20.5625 1.0625 20.5625 -1 21 C-2 20 -2 20 -2.11352539 18.14233398 C-2.10828857 17.35157471 -2.10305176 16.56081543 -2.09765625 15.74609375 C-2.09443359 14.89208984 -2.09121094 14.03808594 -2.08789062 13.15820312 C-2.07951172 12.26037109 -2.07113281 11.36253906 -2.0625 10.4375 C-2.05798828 9.53580078 -2.05347656 8.63410156 -2.04882812 7.70507812 C-2.03700244 5.47002411 -2.01906638 3.23500398 -2 1 C-4.97 1 -7.94 1 -11 1 C-11 0.67 -11 0.34 -11 0 C-7.01611946 -0.83383546 -3.91159585 -1.26862568 0 0 Z " fill="#7149D2" transform="translate(37,14)"/>
<path d="M0 0 C0.99 0.33 1.98 0.66 3 1 C1.02 1.99 1.02 1.99 -1 3 C-0.67 2.01 -0.34 1.02 0 0 Z M-2 3 C-1.01 3.495 -1.01 3.495 0 4 C-0.33 4.66 -0.66 5.32 -1 6 C-1.33 5.01 -1.66 4.02 -2 3 Z M-2 5 C-2 6.65 -2 8.3 -2 10 C-3.62463842 10.05395478 -5.24978541 10.09277195 -6.875 10.125 C-7.77992187 10.14820312 -8.68484375 10.17140625 -9.6171875 10.1953125 C-12 10 -12 10 -14 8 C-13 6 -13 6 -11.375 5.375 C-8.2339425 4.87904355 -5.17398169 4.93896189 -2 5 Z " fill="#395EC5" transform="translate(77,77)"/>
<path d="M0 0 C0 0.33 0 0.66 0 1 C-1.093125 1.103125 -2.18625 1.20625 -3.3125 1.3125 C-6.82643659 1.75451674 -6.82643659 1.75451674 -8.9375 3.125 C-10.60824546 6.07337435 -10.23675966 8.68536472 -10 12 C-9.67 12.99 -9.34 13.98 -9 15 C-8.34 15 -7.68 15 -7 15 C-7 15.66 -7 16.32 -7 17 C-9.46800047 15.84826645 -11.04783565 14.95216435 -13 13 C-13.57057112 9.94294 -13.52353488 7.06188582 -13 4 C-10.83846255 1.11795007 -9.20434533 -0.4525703 -5.9375 -1.9375 C-3.47486215 -2.01693993 -2.08163056 -1.26384713 0 0 Z " fill="#9A3EE4" transform="translate(19,76)"/>
<path d="M0 0 C0.99 0.33 1.98 0.66 3 1 C2.35289063 1.32742187 1.70578125 1.65484375 1.0390625 1.9921875 C-1.52673889 4.51866627 -1.4943682 6.39463628 -1.609375 9.90234375 C-1.61453125 10.63582031 -1.6196875 11.36929688 -1.625 12.125 C-1.67103717 14.77213712 -1.7930088 17.35642668 -2 20 C-2.66 20.33 -3.32 20.66 -4 21 C-4 14.73 -4 8.46 -4 2 C-2.68 1.34 -1.36 0.68 0 0 Z " fill="#5A54D2" transform="translate(55,48)"/>
<path d="M0 0 C1.98 0.99 1.98 0.99 4 2 C3.67 2.33 3.34 2.66 3 3 C2.92686433 5.53049402 2.90752473 8.03304837 2.9375 10.5625 C2.94201172 11.27341797 2.94652344 11.98433594 2.95117188 12.71679688 C2.96299136 14.47790013 2.98092737 16.23896036 3 18 C2.01 18 1.02 18 0 18 C0 12.06 0 6.12 0 0 Z " fill="#7949DA" transform="translate(33,42)"/>
<path d="M0 0 C0.99 0.33 1.98 0.66 3 1 C2.01 2.485 2.01 2.485 1 4 C0.47885202 7.99546788 0.66830793 9.52319265 3 12.875 C3.66 13.57625 4.32 14.2775 5 15 C2.625 14.6875 2.625 14.6875 0 14 C-1.99825961 11.00261059 -2.27550398 10.36652492 -2.25 7 C-2.25515625 6.319375 -2.2603125 5.63875 -2.265625 4.9375 C-2 3 -2 3 0 0 Z " fill="#9E3CE5" transform="translate(8,43)"/>
<path d="M0 0 C3.63 0 7.26 0 11 0 C11.33 0.99 11.66 1.98 12 3 C8.37 3 4.74 3 1 3 C0.67 2.01 0.34 1.02 0 0 Z " fill="#7D47DA" transform="translate(25,83)"/>
<path d="M0 0 C2.375 0.3125 2.375 0.3125 5 1 C6.97944936 3.96917403 7.29350581 4.65702279 7.3125 8 C7.32925781 8.680625 7.34601563 9.36125 7.36328125 10.0625 C6.90165342 12.52451507 5.88101041 13.41181179 4 15 C4.04640625 14.33613281 4.0928125 13.67226563 4.140625 12.98828125 C4.42511557 7.11883743 4.42511557 7.11883743 2 1.875 C1.34 1.25625 0.68 0.6375 0 0 Z " fill="#136BBB" transform="translate(87,42)"/>
<path d="M0 0 C1 3 1 3 0 6 C0.99 6.99 1.98 7.98 3 9 C-0.34373475 8.44271087 -3.03312999 7.64826111 -6 6 C-4.75453595 2.26360784 -3.36595047 1.81243487 0 0 Z " fill="#6F4CD6" transform="translate(41,35)"/>
<path d="M0 0 C2.28122425 1.71091819 3.81204897 3.03452524 4.37109375 5.90625 C4.48204186 9.40437875 4.3278037 11.4536605 2.5 14.5 C2.005 14.995 1.51 15.49 1 16 C0.01 15.67 -0.98 15.34 -2 15 C-1.505 14.649375 -1.01 14.29875 -0.5 13.9375 C1.76782157 11.00823047 1.24914047 8.61253681 1 5 C0.71479595 3.32442621 0.40044304 1.65182755 0 0 Z " fill="#126BB9" transform="translate(90,76)"/>
<path d="M0 0 C1.67180274 0.94934513 3.33733936 1.90973313 5 2.875 C5.928125 3.40867188 6.85625 3.94234375 7.8125 4.4921875 C8.8953125 5.23855469 8.8953125 5.23855469 10 6 C10 6.66 10 7.32 10 8 C8.35 8.66 6.7 9.32 5 10 C4.9175 9.21625 4.835 8.4325 4.75 7.625 C4.27193661 4.85250896 4.27193661 4.85250896 1.9375 3.6875 C1.298125 3.460625 0.65875 3.23375 0 3 C0 2.01 0 1.02 0 0 Z " fill="#4955C5" transform="translate(55,33)"/>
<path d="M0 0 C0.99 0.495 0.99 0.495 2 1 C2 1.66 2 2.32 2 3 C1.34 3 0.68 3 0 3 C0 2.01 0 1.02 0 0 Z M-6 3 C-4.02 3 -2.04 3 0 3 C-0.33 4.32 -0.66 5.64 -1 7 C-2.65 7 -4.3 7 -6 7 C-6 5.68 -6 4.36 -6 3 Z " fill="#3459CF" transform="translate(75,45)"/>
<path d="M0 0 C2 1 2 1 2.59765625 2.77734375 C2.75105469 3.49019531 2.90445312 4.20304687 3.0625 4.9375 C3.55309711 7.17154137 3.97397802 8.94795605 5 11 C4.01 11 3.02 11 2 11 C-0.67927341 6.98108988 -0.15601248 4.75838077 0 0 Z " fill="#9F3BE6" transform="translate(6,12)"/>
<path d="M0 0 C0 0.33 0 0.66 0 1 C-1.093125 1.103125 -2.18625 1.20625 -3.3125 1.3125 C-6.98536808 1.99727202 -7.75237686 2.27919304 -10 5 C-10.66 5 -11.32 5 -12 5 C-9.30839269 -1.21140148 -6.29369588 -1.18748979 0 0 Z " fill="#9B3EE5" transform="translate(19,7)"/>
<path d="M0 0 C0.33 0 0.66 0 1 0 C1.144375 1.093125 1.28875 2.18625 1.4375 3.3125 C1.88288104 6.93122987 1.88288104 6.93122987 3 10 C3.66 10 4.32 10 5 10 C5 10.66 5 11.32 5 12 C2.53199953 10.84826645 0.95216435 9.95216435 -1 8 C-0.96712417 5.27130593 -0.43602229 2.7033382 0 0 Z " fill="#A43AE8" transform="translate(7,81)"/>
<path d="M0 0 C2.64 0 5.28 0 8 0 C7.01 1.485 7.01 1.485 6 3 C3.03 2.505 3.03 2.505 0 2 C0 1.34 0 0.68 0 0 Z " fill="#963EE4" transform="translate(11,23)"/>
</svg>
