<?xml version="1.0" encoding="UTF-8"?>
<svg version="1.1" xmlns="http://www.w3.org/2000/svg" width="100" height="100">
<path d="M0 0 C2.475 0.495 2.475 0.495 5 1 C4.67 1.99 4.34 2.98 4 4 C3.85507877 5.40664926 3.75371069 6.8181133 3.68359375 8.23046875 C3.62075195 9.43413086 3.62075195 9.43413086 3.55664062 10.66210938 C3.51732422 11.49548828 3.47800781 12.32886719 3.4375 13.1875 C3.37272461 14.4549707 3.37272461 14.4549707 3.30664062 15.74804688 C3.20068482 17.83184433 3.0998498 19.91590103 3 22 C3.66 22 4.32 22 5 22 C4.95359375 20.97519531 4.9071875 19.95039063 4.859375 18.89453125 C4.82183989 17.53388344 4.78544159 16.17320395 4.75 14.8125 C4.69972656 13.80219727 4.69972656 13.80219727 4.6484375 12.77148438 C4.57776607 9.14957356 4.89386234 7.16950343 6.83203125 4.07421875 C9.60131356 1.42468919 11.18575418 1 15 1 C19.56521739 3.13043478 19.56521739 3.13043478 21 6 C22.1446875 6.4021875 22.1446875 6.4021875 23.3125 6.8125 C26.62631776 8.27674506 27.99222448 10.02551775 30 13 C30 13.66 30 14.32 30 15 C30.9075 15.0825 31.815 15.165 32.75 15.25 C36.43567292 16.1005399 37.64195057 17.11793958 40 20 C41 22 41 22 40.75 24.8125 C40.65719988 28.19151096 40.65719988 28.19151096 43.4375 30.3125 C46.53389682 33.55994057 46.87968511 35.4880676 47.140625 39.8515625 C46.94001546 42.91643045 45.93493201 44.6504397 44 47 C43.443125 47.474375 42.88625 47.94875 42.3125 48.4375 C40.69180379 50.02679967 40.69180379 50.02679967 41 52.875 C41 56.57996442 40.2550683 58.10062647 38 61 C34.99341882 63.03671629 33.80903404 63 30 63 C29.9071875 64.11375 29.9071875 64.11375 29.8125 65.25 C28.73593147 68.89377041 27.17760854 70.00475743 24 72 C22.68 72 21.36 72 20 72 C19.7215625 72.9590625 19.7215625 72.9590625 19.4375 73.9375 C18 76 18 76 14.6875 77 C11 77 11 77 8.125 75.1875 C4.48861862 71.44416622 4.87793095 68.34214234 4.9375 63.375 C4.94201172 62.66859375 4.94652344 61.9621875 4.95117188 61.234375 C4.96296125 59.48954725 4.98089676 57.744763 5 56 C4.34 56 3.68 56 3 56 C3.10828125 57.87945312 3.10828125 57.87945312 3.21875 59.796875 C3.312559 61.44791332 3.40630574 63.09895517 3.5 64.75 C3.54769531 65.575 3.59539063 66.4 3.64453125 67.25 C3.68964844 68.04921875 3.73476563 68.8484375 3.78125 69.671875 C3.82314453 70.4050293 3.86503906 71.13818359 3.90820312 71.89355469 C3.99683338 73.92733614 4 75.96428825 4 78 C2.35 77.67 0.7 77.34 -1 77 C-0.505 75.515 -0.505 75.515 0 74 C0.14492123 72.59335074 0.24628931 71.1818867 0.31640625 69.76953125 C0.37924805 68.56586914 0.37924805 68.56586914 0.44335938 67.33789062 C0.48267578 66.50451172 0.52199219 65.67113281 0.5625 64.8125 C0.62727539 63.5450293 0.62727539 63.5450293 0.69335938 62.25195312 C0.79931518 60.16815567 0.9001502 58.08409897 1 56 C0.34 56 -0.32 56 -1 56 C-0.95359375 57.02480469 -0.9071875 58.04960938 -0.859375 59.10546875 C-0.82183989 60.46611656 -0.78544159 61.82679605 -0.75 63.1875 C-0.69972656 64.19780273 -0.69972656 64.19780273 -0.6484375 65.22851562 C-0.57776607 68.85042644 -0.89386234 70.83049657 -2.83203125 73.92578125 C-5.60131356 76.57531081 -7.18575418 77 -11 77 C-13.875 75.6875 -13.875 75.6875 -16 74 C-16 73.34 -16 72.68 -16 72 C-17.36125 71.9071875 -17.36125 71.9071875 -18.75 71.8125 C-22.77928762 70.80517809 -23.84575113 69.47994048 -26 66 C-26 65.01 -26 64.02 -26 63 C-26.9075 62.9175 -27.815 62.835 -28.75 62.75 C-32.53688242 61.87610406 -33.7614704 61.15052314 -36 58 C-37.39285714 51.78571429 -37.39285714 51.78571429 -36 49 C-36.598125 48.773125 -37.19625 48.54625 -37.8125 48.3125 C-40.78503192 46.52898085 -41.69404761 45.23051382 -43 42 C-43.20085166 38.83802098 -42.93643603 36.03094977 -42 33 C-40.37347684 31.29413425 -38.70993434 29.6222454 -37 28 C-36.83333333 25 -36.83333333 25 -37 22 C-35.69021768 19.1184789 -34.68741673 17.4656694 -32.0625 15.6875 C-30 15 -30 15 -26 15 C-25.814375 14.071875 -25.62875 13.14375 -25.4375 12.1875 C-23.49373224 7.87740627 -21.31576467 7.63701419 -17 6 C-16.319375 5.29875 -15.63875 4.5975 -14.9375 3.875 C-12.31340225 1.33555056 -10.62660686 1 -7 1 C-4.25283613 2.77039449 -2.46854078 4.06291844 -1 7 C-0.9283265 9.55157655 -0.90691558 12.07472971 -0.9375 14.625 C-0.94201172 15.33140625 -0.94652344 16.0378125 -0.95117188 16.765625 C-0.96296125 18.51045275 -0.98089676 20.255237 -1 22 C-0.34 22 0.32 22 1 22 C0.89171875 20.12054687 0.89171875 20.12054687 0.78125 18.203125 C0.687441 16.55208668 0.59369426 14.90104483 0.5 13.25 C0.45230469 12.425 0.40460937 11.6 0.35546875 10.75 C0.31035156 9.95078125 0.26523437 9.1515625 0.21875 8.328125 C0.17685547 7.5949707 0.13496094 6.86181641 0.09179688 6.10644531 C0.00316662 4.07266386 0 2.03571175 0 0 Z " fill="#4D90F1" transform="translate(48,11)"/>
<path d="M0 0 C1.35432675 1.31200404 2.68733482 2.64631404 4 4 C5.2375 4.4640625 5.2375 4.4640625 6.5 4.9375 C9.72789343 6.30935471 11.05953506 8.12523712 13 11 C13 11.66 13 12.32 13 13 C14.36125 13.12375 14.36125 13.12375 15.75 13.25 C19.43567292 14.1005399 20.64195057 15.11793958 23 18 C24 20 24 20 23.75 22.8125 C23.65719988 26.19151096 23.65719988 26.19151096 26.4375 28.3125 C29.53389682 31.55994057 29.87968511 33.4880676 30.140625 37.8515625 C29.94001546 40.91643045 28.93493201 42.6504397 27 45 C26.443125 45.474375 25.88625 45.94875 25.3125 46.4375 C23.69180379 48.02679967 23.69180379 48.02679967 24 50.875 C24 54.57996442 23.2550683 56.10062647 21 59 C17.99341882 61.03671629 16.80903404 61 13 61 C12.9071875 62.11375 12.9071875 62.11375 12.8125 63.25 C11.73593147 66.89377041 10.17760854 68.00475743 7 70 C5.68 70 4.36 70 3 70 C2.814375 70.639375 2.62875 71.27875 2.4375 71.9375 C1 74 1 74 -2.3125 75 C-6 75 -6 75 -8.875 73.1875 C-12.51138138 69.44416622 -12.12206905 66.34214234 -12.0625 61.375 C-12.05798828 60.66859375 -12.05347656 59.9621875 -12.04882812 59.234375 C-12.03703875 57.48954725 -12.01910324 55.744763 -12 54 C-11.22914062 53.95101562 -10.45828125 53.90203125 -9.6640625 53.8515625 C-8.66117188 53.77679688 -7.65828125 53.70203125 -6.625 53.625 C-5.62726562 53.55539063 -4.62953125 53.48578125 -3.6015625 53.4140625 C-0.84491121 53.23636036 -0.84491121 53.23636036 1 51 C1.31198539 48.11912077 1.31198539 48.11912077 1.265625 44.75 C1.26820312 43.5021875 1.27078125 42.254375 1.2734375 40.96875 C1.26570313 39.6590625 1.25796875 38.349375 1.25 37 C1.25773437 35.6903125 1.26546875 34.380625 1.2734375 33.03125 C1.26957031 31.15953125 1.26957031 31.15953125 1.265625 29.25 C1.26224121 27.52523437 1.26224121 27.52523437 1.25878906 25.765625 C1.28343676 22.85800168 1.28343676 22.85800168 -1 21 C-3.66242821 20.53709779 -3.66242821 20.53709779 -6.625 20.375 C-7.62789062 20.30023438 -8.63078125 20.22546875 -9.6640625 20.1484375 C-10.43492188 20.09945312 -11.20578125 20.05046875 -12 20 C-12.10854617 17.60293877 -12.18753157 15.21084162 -12.25 12.8125 C-12.28351562 12.13896484 -12.31703125 11.46542969 -12.3515625 10.77148438 C-12.42218223 7.15222309 -12.10553212 5.16889649 -10.171875 2.07421875 C-6.76464666 -1.17980687 -4.3606181 -1.38263501 0 0 Z " fill="#4D90F1" transform="translate(65,13)"/>
<path d="M0 0 C2.475 0.495 2.475 0.495 5 1 C4.67 1.99 4.34 2.98 4 4 C3.85507877 5.40664926 3.75371069 6.8181133 3.68359375 8.23046875 C3.64169922 9.03291016 3.59980469 9.83535156 3.55664062 10.66210938 C3.51732422 11.49548828 3.47800781 12.32886719 3.4375 13.1875 C3.39431641 14.03248047 3.35113281 14.87746094 3.30664062 15.74804688 C3.20068482 17.83184433 3.0998498 19.91590103 3 22 C4.35544922 21.94779297 4.35544922 21.94779297 5.73828125 21.89453125 C6.91777344 21.86746094 8.09726562 21.84039062 9.3125 21.8125 C10.48425781 21.77769531 11.65601563 21.74289063 12.86328125 21.70703125 C16 22 16 22 17.67114258 23.1237793 C19.6047306 25.85382227 19.38856636 27.99203766 19.3984375 31.3125 C19.40423828 33.17261719 19.40423828 33.17261719 19.41015625 35.0703125 C19.39855469 36.36710937 19.38695312 37.66390625 19.375 39 C19.38660156 40.29679687 19.39820313 41.59359375 19.41015625 42.9296875 C19.40628906 44.16976562 19.40242188 45.40984375 19.3984375 46.6875 C19.39505371 47.82574219 19.39166992 48.96398438 19.38818359 50.13671875 C19 53 19 53 17.67114258 54.8762207 C14.98559524 56.6821483 12.484611 56.28172112 9.3125 56.1875 C7.54326172 56.14689453 7.54326172 56.14689453 5.73828125 56.10546875 C4.83464844 56.07066406 3.93101563 56.03585938 3 56 C3.0721875 57.25296875 3.144375 58.5059375 3.21875 59.796875 C3.312559 61.44791332 3.40630574 63.09895517 3.5 64.75 C3.54769531 65.575 3.59539063 66.4 3.64453125 67.25 C3.68964844 68.04921875 3.73476563 68.8484375 3.78125 69.671875 C3.82314453 70.4050293 3.86503906 71.13818359 3.90820312 71.89355469 C3.99683338 73.92733614 4 75.96428825 4 78 C2.35 77.67 0.7 77.34 -1 77 C-0.67 76.01 -0.34 75.02 0 74 C0.14492123 72.59335074 0.24628931 71.1818867 0.31640625 69.76953125 C0.35830078 68.96708984 0.40019531 68.16464844 0.44335938 67.33789062 C0.48267578 66.50451172 0.52199219 65.67113281 0.5625 64.8125 C0.60568359 63.96751953 0.64886719 63.12253906 0.69335938 62.25195312 C0.79931518 60.16815567 0.9001502 58.08409897 1 56 C-0.35544922 56.05220703 -0.35544922 56.05220703 -1.73828125 56.10546875 C-2.91777344 56.13253906 -4.09726562 56.15960938 -5.3125 56.1875 C-6.48425781 56.22230469 -7.65601563 56.25710937 -8.86328125 56.29296875 C-12 56 -12 56 -13.67114258 54.8762207 C-15.6047306 52.14617773 -15.38856636 50.00796234 -15.3984375 46.6875 C-15.40230469 45.44742188 -15.40617187 44.20734375 -15.41015625 42.9296875 C-15.39855469 41.63289063 -15.38695312 40.33609375 -15.375 39 C-15.38660156 37.70320313 -15.39820313 36.40640625 -15.41015625 35.0703125 C-15.40628906 33.83023438 -15.40242188 32.59015625 -15.3984375 31.3125 C-15.39505371 30.17425781 -15.39166992 29.03601563 -15.38818359 27.86328125 C-15 25 -15 25 -13.67114258 23.1237793 C-10.98559524 21.3178517 -8.484611 21.71827888 -5.3125 21.8125 C-4.13300781 21.83957031 -2.95351563 21.86664063 -1.73828125 21.89453125 C-0.83464844 21.92933594 0.06898437 21.96414062 1 22 C0.9278125 20.74703125 0.855625 19.4940625 0.78125 18.203125 C0.687441 16.55208668 0.59369426 14.90104483 0.5 13.25 C0.45230469 12.425 0.40460937 11.6 0.35546875 10.75 C0.31035156 9.95078125 0.26523437 9.1515625 0.21875 8.328125 C0.17685547 7.5949707 0.13496094 6.86181641 0.09179688 6.10644531 C0.00316662 4.07266386 0 2.03571175 0 0 Z " fill="#3F4AA5" transform="translate(48,11)"/>
<path d="M0 0 C3.33363045 2.64589007 4.03826418 5.68498903 5.1875 9.6875 C5.53167969 10.86699219 5.87585937 12.04648437 6.23046875 13.26171875 C6.48441406 14.16535156 6.73835938 15.06898437 7 16 C6.34 16 5.68 16 5 16 C4.67 14.35 4.34 12.7 4 11 C1.69 11 -0.62 11 -3 11 C-3.33 12.65 -3.66 14.3 -4 16 C-5.35304209 11.94087374 -4.15216503 10.22850409 -2.5625 6.3125 C-2.08941406 5.13300781 -1.61632813 3.95351563 -1.12890625 2.73828125 C-0.75636719 1.83464844 -0.38382813 0.93101563 0 0 Z " fill="#9298CB" transform="translate(47,42)"/>
<path d="M0 0 C0.66 0 1.32 0 2 0 C2.16803421 2.91659375 2.33447967 5.83326342 2.5 8.75 C2.54769531 9.575 2.59539063 10.4 2.64453125 11.25 C2.71220703 12.44882813 2.71220703 12.44882813 2.78125 13.671875 C2.82314453 14.4050293 2.86503906 15.13818359 2.90820312 15.89355469 C2.99683338 17.92733614 3 19.96428825 3 22 C1.35 21.67 -0.3 21.34 -2 21 C-1.505 19.515 -1.505 19.515 -1 18 C-0.85507877 16.59335074 -0.75371069 15.1818867 -0.68359375 13.76953125 C-0.64169922 12.96708984 -0.59980469 12.16464844 -0.55664062 11.33789062 C-0.51732422 10.50451172 -0.47800781 9.67113281 -0.4375 8.8125 C-0.39431641 7.96751953 -0.35113281 7.12253906 -0.30664062 6.25195312 C-0.20068482 4.16815567 -0.0998498 2.08409897 0 0 Z " fill="#4AD7BC" transform="translate(49,67)"/>
<path d="M0 0 C1.65 0.33 3.3 0.66 5 1 C4.67 1.99 4.34 2.98 4 4 C3.85507877 5.40664926 3.75371069 6.8181133 3.68359375 8.23046875 C3.64169922 9.03291016 3.59980469 9.83535156 3.55664062 10.66210938 C3.49766602 11.91217773 3.49766602 11.91217773 3.4375 13.1875 C3.39431641 14.03248047 3.35113281 14.87746094 3.30664062 15.74804688 C3.20068482 17.83184433 3.0998498 19.91590103 3 22 C2.34 22 1.68 22 1 22 C0.83196579 19.08340625 0.66552033 16.16673658 0.5 13.25 C0.42845703 12.0125 0.42845703 12.0125 0.35546875 10.75 C0.31035156 9.95078125 0.26523437 9.1515625 0.21875 8.328125 C0.17685547 7.5949707 0.13496094 6.86181641 0.09179688 6.10644531 C0.00316662 4.07266386 0 2.03571175 0 0 Z " fill="#4AD7BC" transform="translate(48,11)"/>
<path d="M0 0 C-0.33 0.99 -0.66 1.98 -1 3 C-7.93 2.67 -14.86 2.34 -22 2 C-22 1.34 -22 0.68 -22 0 C-18.89635771 -0.19696449 -15.79207808 -0.38093262 -12.6875 -0.5625 C-11.36588867 -0.64661133 -11.36588867 -0.64661133 -10.01757812 -0.73242188 C-8.74624023 -0.80493164 -8.74624023 -0.80493164 -7.44921875 -0.87890625 C-6.27879028 -0.94960327 -6.27879028 -0.94960327 -5.0847168 -1.02172852 C-3 -1 -3 -1 0 0 Z " fill="#59B9E2" transform="translate(89,49)"/>
<path d="M0 0 C6.93 0.33 13.86 0.66 21 1 C21 1.66 21 2.32 21 3 C10.605 3.495 10.605 3.495 0 4 C0 2.68 0 1.36 0 0 Z " fill="#59B9E2" transform="translate(12,48)"/>
<path d="M0 0 C3.63 0.33 7.26 0.66 11 1 C11 1.66 11 2.32 11 3 C7.37 3.33 3.74 3.66 0 4 C0 2.68 0 1.36 0 0 Z " fill="#62BEE9" transform="translate(22,57)"/>
<path d="M0 0 C3.63 0.33 7.26 0.66 11 1 C11 1.66 11 2.32 11 3 C7.37 3.33 3.74 3.66 0 4 C0 2.68 0 1.36 0 0 Z " fill="#62BEE9" transform="translate(22,39)"/>
<path d="M0 0 C0.99 0.33 1.98 0.66 3 1 C2.67 4.63 2.34 8.26 2 12 C1.34 12 0.68 12 0 12 C-0.19401633 10.18818595 -0.38004375 8.37551468 -0.5625 6.5625 C-0.66691406 5.55316406 -0.77132812 4.54382813 -0.87890625 3.50390625 C-0.91886719 2.67761719 -0.95882812 1.85132812 -1 1 C-0.67 0.67 -0.34 0.34 0 0 Z " fill="#62BEE9" transform="translate(40,21)"/>
<path d="M0 0 C0.66 0 1.32 0 2 0 C2.33 3.63 2.66 7.26 3 11 C1.68 11 0.36 11 -1 11 C-0.67 7.37 -0.34 3.74 0 0 Z " fill="#62BEE9" transform="translate(58,67)"/>
<path d="M0 0 C0.66 0 1.32 0 2 0 C2.33 3.63 2.66 7.26 3 11 C1.68 11 0.36 11 -1 11 C-0.67 7.37 -0.34 3.74 0 0 Z " fill="#62BEE9" transform="translate(40,67)"/>
<path d="M0 0 C-0.33 0.99 -0.66 1.98 -1 3 C-4.63 2.67 -8.26 2.34 -12 2 C-12 1.34 -12 0.68 -12 0 C-10.56359829 -0.19573608 -9.12580496 -0.38127816 -7.6875 -0.5625 C-6.88699219 -0.66691406 -6.08648437 -0.77132812 -5.26171875 -0.87890625 C-3 -1 -3 -1 0 0 Z " fill="#62BEE9" transform="translate(79,58)"/>
<path d="M0 0 C-0.33 0.99 -0.66 1.98 -1 3 C-4.63 2.67 -8.26 2.34 -12 2 C-12 1.34 -12 0.68 -12 0 C-10.56359829 -0.19573608 -9.12580496 -0.38127816 -7.6875 -0.5625 C-6.88699219 -0.66691406 -6.08648437 -0.77132812 -5.26171875 -0.87890625 C-3 -1 -3 -1 0 0 Z " fill="#62BEE9" transform="translate(79,40)"/>
<path d="M0 0 C0.99 0.33 1.98 0.66 3 1 C2.67 4.63 2.34 8.26 2 12 C1.34 12 0.68 12 0 12 C-0.19401633 10.18818595 -0.38004375 8.37551468 -0.5625 6.5625 C-0.66691406 5.55316406 -0.77132812 4.54382813 -0.87890625 3.50390625 C-0.91886719 2.67761719 -0.95882812 1.85132812 -1 1 C-0.67 0.67 -0.34 0.34 0 0 Z " fill="#62BEE9" transform="translate(58,21)"/>
<path d="M0 0 C1.65 0.33 3.3 0.66 5 1 C4.67 1.99 4.34 2.98 4 4 C2.35 3.67 0.7 3.34 -1 3 C-0.67 2.01 -0.34 1.02 0 0 Z " fill="#8CE3FE" transform="translate(48,85)"/>
<path d="M0 0 C1.65 0.33 3.3 0.66 5 1 C4.67 1.99 4.34 2.98 4 4 C2.35 3.67 0.7 3.34 -1 3 C-0.67 2.01 -0.34 1.02 0 0 Z " fill="#8BE3FE" transform="translate(48,11)"/>
<path d="M0 0 C0.763125 0.20625 1.52625 0.4125 2.3125 0.625 C1.735 0.893125 1.1575 1.16125 0.5625 1.4375 C-1.7200868 2.64219859 -3.6612942 4.03298115 -5.6875 5.625 C-5.6875 4.305 -5.6875 2.985 -5.6875 1.625 C-2.6875 -0.375 -2.6875 -0.375 0 0 Z " fill="#5497FA" transform="translate(29.6875,18.375)"/>
</svg>
