<?xml version="1.0" encoding="UTF-8"?>
<svg version="1.1" xmlns="http://www.w3.org/2000/svg" width="100" height="100" viewBox="0 -30 100 130">
<path d="M0 0 C1.32 0 2.64 0 4 0 C4 1.65 4 3.3 4 5 C4.66 5 5.32 5 6 5 C6 3.35 6 1.7 6 0 C10.62 0 15.24 0 20 0 C20 1.65 20 3.3 20 5 C21.32 5.33 22.64 5.66 24 6 C24 6.66 24 7.32 24 8 C25.98 8 27.96 8 30 8 C30 9.32 30 10.64 30 12 C30.87011719 12.00386719 30.87011719 12.00386719 31.7578125 12.0078125 C38.18543704 12.32601173 38.18543704 12.32601173 40.65234375 14.3671875 C41.59069155 15.45369547 42.5281953 16.54093298 43.46484375 17.62890625 C46.33547252 20.19275026 49.24999655 19.93951607 53 20 C55.36693717 19.66499921 55.36693717 19.66499921 57 19 C57 17.68 57 16.36 57 15 C59.73905345 13.63047327 61.97087332 13.87378639 65 14 C65.99 14.495 65.99 14.495 67 15 C67 16.32 67 17.64 67 19 C72.05009595 19.93786082 72.05009595 19.93786082 77 19 C81.34508588 21.42322097 81.34508588 21.42322097 83 24 C83.22103912 27.4524206 82.72041264 30.62715901 82 34 C83.65 34.33 85.3 34.66 87 35 C87 37.97 87 40.94 87 44 C85.02 44.99 85.02 44.99 83 46 C82.0987913 49.45463334 82 52.41911208 82 56 C80.375 58.3125 80.375 58.3125 78 60 C75 59.625 75 59.625 72 59 C69.66335851 59.54217768 69.66335851 59.54217768 68 61 C67.67 62.32 67.34 63.64 67 65 C64.03 65 61.06 65 58 65 C57.67 63.35 57.34 61.7 57 60 C52.68522541 59.09572793 52.68522541 59.09572793 48.375 59.6875 C46 60 46 60 43.625 58.4375 C42 56 42 56 42.3125 53.0625 C42.6528125 51.5465625 42.6528125 51.5465625 43 50 C42.63141012 47.23135047 42.63141012 47.23135047 42 45 C40.35 44.67 38.7 44.34 37 44 C37 41.03 37 38.06 37 35 C39.475 34.505 39.475 34.505 42 34 C42.67976945 26.5374985 42.67976945 26.5374985 39.9375 19.8125 C36.58240387 17.38737479 36.58240387 17.38737479 30 18 C30 22.62 30 27.24 30 32 C28.02 32 26.04 32 24 32 C24 32.66 24 33.32 24 34 C22.02 34.495 22.02 34.495 20 35 C20 36.65 20 38.3 20 40 C17.525 40.495 17.525 40.495 15 41 C15.66 41.226875 16.32 41.45375 17 41.6875 C20.95328513 43.41706224 24.71749621 45.15665205 28 48 C29.25 51.5625 29.25 51.5625 30 55 C31.64753015 57.5668504 31.64753015 57.5668504 34 59 C34.825 58.835 35.65 58.67 36.5 58.5 C39 58 39 58 41.3125 59.375 C43.75823186 63.17947178 43.33868966 66.59703436 43 71 C43.639375 71.144375 44.27875 71.28875 44.9375 71.4375 C47 72 47 72 48 73 C50.55563371 73.07211665 53.09660453 72.99633716 55.65234375 72.9375 C58 73 58 73 60 74 C60.37890625 76.546875 60.37890625 76.546875 60.5625 79.75 C60.74979407 82.85373023 60.95462282 85.78242994 61.58984375 88.828125 C61.72519531 89.54484375 61.86054687 90.2615625 62 91 C61 92 61 92 58.5625 92.1875 C56 92 56 92 54 90 C54.2421875 86.9609375 54.2421875 86.9609375 54.875 83.375 C55.18050781 81.59222656 55.18050781 81.59222656 55.4921875 79.7734375 C55.65976563 78.85820313 55.82734375 77.94296875 56 77 C53.03 77 50.06 77 47 77 C46.505 78.485 46.505 78.485 46 80 C45.01 80 44.02 80 43 80 C43.05800781 80.60328125 43.11601563 81.2065625 43.17578125 81.828125 C43.54172367 88.31053352 43.54172367 88.31053352 40.9375 91.625 C37.19596138 93.3763585 34.96041793 92.93186304 31 92 C30.505 93.98 30.505 93.98 30 96 C27.36 96 24.72 96 22 96 C21.67 95.01 21.34 94.02 21 93 C18.05610218 91.82244087 17.10046087 91.96651304 14 93 C11.3125 91.0625 11.3125 91.0625 9 89 C9.185625 88.05125 9.37125 87.1025 9.5625 86.125 C10.28686632 83.10131207 10.28686632 83.10131207 9 81 C6.98330173 79.86649466 6.98330173 79.86649466 5 79 C5 78.34 5 77.68 5 77 C1.04 77 -2.92 77 -7 77 C-7.06058594 75.78441406 -7.12117187 74.56882812 -7.18359375 73.31640625 C-7.26798332 71.73175772 -7.3526321 70.14712298 -7.4375 68.5625 C-7.47681641 67.76005859 -7.51613281 66.95761719 -7.55664062 66.13085938 C-7.4054296 62.24760439 -7.4054296 62.24760439 -9 59 C-9.125 56.5 -9.125 56.5 -9 54 C-8 53 -8 53 -5.5 52.875 C-3 53 -3 53 -2 54 C-1.76744186 58.53488372 -1.76744186 58.53488372 -3 61 C-3.07033769 62.87379605 -3.0843022 64.75001102 -3.0625 66.625 C-3.04896484 68.12933594 -3.04896484 68.12933594 -3.03515625 69.6640625 C-3.02355469 70.43492188 -3.01195312 71.20578125 -3 72 C3.37870398 72.48180737 3.37870398 72.48180737 9 70 C10.24828219 67.50343562 10.00098281 66.00617767 9.5625 63.25 C7.92781234 59.84984967 6.79522083 58.97674948 3.9375 56.6875 C0.11047417 53.16497532 -0.55337539 50.3609988 -0.91577148 45.37036133 C-1.03885165 41.90663583 -1.06301407 38.4657741 -1 35 C-1.66 34.67 -2.32 34.34 -3 34 C-3 33.34 -3 32.68 -3 32 C-4.98 32 -6.96 32 -9 32 C-9 24.08 -9 16.16 -9 8 C-7.02 8 -5.04 8 -3 8 C-2.67 7.01 -2.34 6.02 -2 5 C-1.34 5 -0.68 5 0 5 C0 3.35 0 1.7 0 0 Z M4 35 C2.92110243 44.70115351 2.92110243 44.70115351 5.53515625 53.80859375 C8.77302103 57.20866371 11.28791208 58.7898757 15.8125 60.125 C19.15809719 60.27136339 19.15809719 60.27136339 22 58 C22 57.01 22 56.02 22 55 C22.66 55 23.32 55 24 55 C24.49642618 52.64103583 24.49642618 52.64103583 24 50 C21.36865979 48.13933435 21.36865979 48.13933435 18.0625 46.6875 C12.27460728 43.59971704 12.27460728 43.59971704 10.98046875 40.7734375 C10.75 38.5625 10.75 38.5625 11 35 C10.67 35 10.34 35 10 35 C10 36.65 10 38.3 10 40 C8.68 40 7.36 40 6 40 C6 38.35 6 36.7 6 35 C5.34 35 4.68 35 4 35 Z " fill="#B9C3EF" transform="translate(11,2)"/>
<path d="M0 0 C2.5 0.125 2.5 0.125 3.5 1.125 C3.73255814 5.65988372 3.73255814 5.65988372 2.5 8.125 C2.42966231 9.99879605 2.4156978 11.87501102 2.4375 13.75 C2.45103516 15.25433594 2.45103516 15.25433594 2.46484375 16.7890625 C2.47644531 17.55992188 2.48804688 18.33078125 2.5 19.125 C8.87870398 19.60680737 8.87870398 19.60680737 14.5 17.125 C15.62877968 14.30305079 15.5 12.24679761 15.5 9.125 C17.75 6.8125 17.75 6.8125 20.5 5.125 C22.6875 5.4375 22.6875 5.4375 24.5 6.125 C25.16 5.795 25.82 5.465 26.5 5.125 C26.83 4.135 27.16 3.145 27.5 2.125 C30.6875 1.3125 30.6875 1.3125 34.5 1.125 C36.20680947 2.75053283 37.87660195 4.41615995 39.5 6.125 C41.17542976 5.83895102 42.84385343 5.50718767 44.5 5.125 C46.8125 6.5 46.8125 6.5 48.5 9.125 C48.82801917 12.15527235 48.7334542 15.0900954 48.5 18.125 C49.4590625 18.3415625 49.4590625 18.3415625 50.4375 18.5625 C52.5 19.125 52.5 19.125 53.5 20.125 C56.05563371 20.19711665 58.59660453 20.12133716 61.15234375 20.0625 C63.5 20.125 63.5 20.125 65.5 21.125 C65.87890625 23.671875 65.87890625 23.671875 66.0625 26.875 C66.24979407 29.97873023 66.45462282 32.90742994 67.08984375 35.953125 C67.22519531 36.66984375 67.36054687 37.3865625 67.5 38.125 C66.5 39.125 66.5 39.125 64.0625 39.3125 C61.5 39.125 61.5 39.125 59.5 37.125 C59.7421875 34.0859375 59.7421875 34.0859375 60.375 30.5 C60.57867187 29.31148437 60.78234375 28.12296875 60.9921875 26.8984375 C61.15976563 25.98320313 61.32734375 25.06796875 61.5 24.125 C58.53 24.125 55.56 24.125 52.5 24.125 C52.005 25.61 52.005 25.61 51.5 27.125 C50.51 27.125 49.52 27.125 48.5 27.125 C48.55800781 27.72828125 48.61601563 28.3315625 48.67578125 28.953125 C49.04172367 35.43553352 49.04172367 35.43553352 46.4375 38.75 C42.69596138 40.5013585 40.46041793 40.05686304 36.5 39.125 C36.17 40.445 35.84 41.765 35.5 43.125 C32.86 43.125 30.22 43.125 27.5 43.125 C27.17 42.135 26.84 41.145 26.5 40.125 C23.55610218 38.94744087 22.60046087 39.09151304 19.5 40.125 C16.8125 38.1875 16.8125 38.1875 14.5 36.125 C14.685625 35.17625 14.87125 34.2275 15.0625 33.25 C15.78686632 30.22631207 15.78686632 30.22631207 14.5 28.125 C12.48330173 26.99149466 12.48330173 26.99149466 10.5 26.125 C10.5 25.465 10.5 24.805 10.5 24.125 C6.54 24.125 2.58 24.125 -1.5 24.125 C-1.56058594 22.90941406 -1.62117187 21.69382812 -1.68359375 20.44140625 C-1.76798332 18.85675772 -1.8526321 17.27212298 -1.9375 15.6875 C-1.97681641 14.88505859 -2.01613281 14.08261719 -2.05664062 13.25585938 C-1.9054296 9.37260439 -1.9054296 9.37260439 -3.5 6.125 C-3.625 3.625 -3.625 3.625 -3.5 1.125 C-2.5 0.125 -2.5 0.125 0 0 Z " fill="#4BAFFB" transform="translate(5.5,54.875)"/>
<path d="M0 0 C1.32 0 2.64 0 4 0 C4 1.65 4 3.3 4 5 C4.66 5 5.32 5 6 5 C6 3.35 6 1.7 6 0 C10.62 0 15.24 0 20 0 C20 1.65 20 3.3 20 5 C21.32 5.33 22.64 5.66 24 6 C24 6.66 24 7.32 24 8 C25.98 8 27.96 8 30 8 C30 9.32 30 10.64 30 12 C30.85271484 11.98646484 30.85271484 11.98646484 31.72265625 11.97265625 C36.76393227 12.16622778 39.46430286 12.90531602 43.0625 16.5625 C44.06285414 17.68988324 45.0499055 18.82994793 46 20 C45.505 21.485 45.505 21.485 45 23 C42.1225645 22.58893779 41.15022686 22.1709478 39.1875 19.9375 C36.61367503 17.22645888 36.61367503 17.22645888 30 18 C30 22.62 30 27.24 30 32 C28.02 32 26.04 32 24 32 C24 32.66 24 33.32 24 34 C22.02 34.495 22.02 34.495 20 35 C20 36.65 20 38.3 20 40 C17.525 40.495 17.525 40.495 15 41 C15.66 41.226875 16.32 41.45375 17 41.6875 C25.01000303 45.19187633 25.01000303 45.19187633 28 48 C28.5 51.8125 28.5 51.8125 28 55 C26.68 55 25.36 55 24 55 C23.95875 54.24976563 23.9175 53.49953125 23.875 52.7265625 C22.62601478 48.83463534 20.56647517 48.21711807 17 46.375 C11.09990485 43.29971456 11.09990485 43.29971456 10 40 C8.68 40 7.36 40 6 40 C6 38.35 6 36.7 6 35 C5.34 35 4.68 35 4 35 C3.54685477 44.86496532 3.54685477 44.86496532 6.84765625 53.84375 C8.81073848 55.75489883 10.74924604 57.44139133 13 59 C12.67 59.99 12.34 60.98 12 62 C6.89406505 59.6248797 2.94146955 56.89347452 0 52 C-1.25397661 46.43639494 -1.10313342 40.67233804 -1 35 C-1.66 34.67 -2.32 34.34 -3 34 C-3 33.34 -3 32.68 -3 32 C-4.98 32 -6.96 32 -9 32 C-9 24.08 -9 16.16 -9 8 C-7.02 8 -5.04 8 -3 8 C-2.67 7.01 -2.34 6.02 -2 5 C-1.34 5 -0.68 5 0 5 C0 3.35 0 1.7 0 0 Z " fill="#FCDB37" transform="translate(11,2)"/>
<path d="M0 0 C3.41440081 3.71567147 4.9601325 6.77373671 5.5 11.8125 C4.94105046 17.02936233 3.46292735 20.10510214 -0.4375 23.625 C-5.15673865 26.89216522 -9.2298708 26.93684609 -14.875 26.3125 C-19.28302625 24.14855984 -22.10639226 21.93053133 -23.875 17.3125 C-24.58360113 12.69585625 -24.93064082 8.35485665 -22.73828125 4.11328125 C-16.88483255 -3.21505216 -8.10502037 -4.75729457 0 0 Z " fill="#FDFCFA" transform="translate(82.875,29.6875)"/>
<path d="M0 0 C0.66 0 1.32 0 2 0 C2 1.32 2 2.64 2 4 C7.05009595 4.93786082 7.05009595 4.93786082 12 4 C16.34508588 6.42322097 16.34508588 6.42322097 18 9 C18.22103912 12.4524206 17.72041264 15.62715901 17 19 C18.65 19.33 20.3 19.66 22 20 C22 22.97 22 25.94 22 29 C20.02 29.99 20.02 29.99 18 31 C17.0987913 34.45463334 17 37.41911208 17 41 C15 43.25 15 43.25 13 45 C12.01 44.67 11.02 44.34 10 44 C10.495 43.525625 10.99 43.05125 11.5 42.5625 C13.70453669 38.79641649 13.24608113 35.26540621 13 31 C12.01 31.66 11.02 32.32 10 33 C10.165 32.319375 10.33 31.63875 10.5 30.9375 C11.71483627 23.8003369 11.05998687 19.86442547 7 14 C6.2575 13.443125 5.515 12.88625 4.75 12.3125 C4.1725 11.879375 3.595 11.44625 3 11 C3 9.68 3 8.36 3 7 C1.68 6.34 0.36 5.68 -1 5 C-0.67 3.35 -0.34 1.7 0 0 Z " fill="#B7C2ED" transform="translate(76,17)"/>
<path d="M0 0 C3.30768307 2.32144729 4.8136678 5.00622827 5.5625 9 C4.72644071 13.45898285 2.80828083 16.67392739 -0.875 19.375 C-3.73814578 20.2171017 -6.03248635 20.31569294 -9 20 C-10.875 18.5 -10.875 18.5 -12 17 C-10.68 15.35 -9.36 13.7 -8 12 C-8.78375 12.495 -9.5675 12.99 -10.375 13.5 C-13 15 -13 15 -15 15 C-16.57455739 11.85088521 -16.34799118 9.47991184 -16 6 C-11.91615781 -0.85719771 -7.42299321 -2.07331879 0 0 Z " fill="#F7F9FC" transform="translate(43,68)"/>
<path d="M0 0 C1.32 0 2.64 0 4 0 C4 1.65 4 3.3 4 5 C5.32 5.33 6.64 5.66 8 6 C8 6.66 8 7.32 8 8 C9.98 8 11.96 8 14 8 C14 9.32 14 10.64 14 12 C14.85271484 11.98646484 14.85271484 11.98646484 15.72265625 11.97265625 C20.76393227 12.16622778 23.46430286 12.90531602 27.0625 16.5625 C28.06285414 17.68988324 29.0499055 18.82994793 30 20 C29.67 20.99 29.34 21.98 29 23 C26.1225645 22.58893779 25.15022686 22.1709478 23.1875 19.9375 C20.61367503 17.22645888 20.61367503 17.22645888 14 18 C14 22.62 14 27.24 14 32 C12.02 32 10.04 32 8 32 C8 32.66 8 33.32 8 34 C6.02 34.495 6.02 34.495 4 35 C4 36.65 4 38.3 4 40 C2.68 40 1.36 40 0 40 C0 38.35 0 36.7 0 35 C1.98 34.01 3.96 33.02 6 32 C6 23.75 6 15.5 6 7 C4.02 6.34 2.04 5.68 0 5 C0 3.35 0 1.7 0 0 Z " fill="#FDC62F" transform="translate(27,2)"/>
<path d="M0 0 C4.62 0 9.24 0 14 0 C14 4.95 14 9.9 14 15 C9.38 15 4.76 15 0 15 C0 10.05 0 5.1 0 0 Z " fill="#FEFCF3" transform="translate(14,14)"/>
<path d="M0 0 C2.5 0.125 2.5 0.125 3.5 1.125 C3.73255814 5.65988372 3.73255814 5.65988372 2.5 8.125 C2.42966231 9.99879605 2.4156978 11.87501102 2.4375 13.75 C2.45103516 15.25433594 2.45103516 15.25433594 2.46484375 16.7890625 C2.47644531 17.55992188 2.48804688 18.33078125 2.5 19.125 C5.14 19.455 7.78 19.785 10.5 20.125 C10.83 21.445 11.16 22.765 11.5 24.125 C7.21 24.125 2.92 24.125 -1.5 24.125 C-1.56058594 22.90941406 -1.62117187 21.69382812 -1.68359375 20.44140625 C-1.76798332 18.85675772 -1.8526321 17.27212298 -1.9375 15.6875 C-1.97681641 14.88505859 -2.01613281 14.08261719 -2.05664062 13.25585938 C-1.9054296 9.37260439 -1.9054296 9.37260439 -3.5 6.125 C-3.625 3.625 -3.625 3.625 -3.5 1.125 C-2.5 0.125 -2.5 0.125 0 0 Z " fill="#FE9049" transform="translate(5.5,54.875)"/>
<path d="M0 0 C1.62490954 -0.02698189 3.24994633 -0.04638757 4.875 -0.0625 C5.77992187 -0.07410156 6.68484375 -0.08570312 7.6171875 -0.09765625 C10 0 10 0 12 1 C12.37890625 3.546875 12.37890625 3.546875 12.5625 6.75 C12.74979407 9.85373023 12.95462282 12.78242994 13.58984375 15.828125 C13.72519531 16.54484375 13.86054687 17.2615625 14 18 C13 19 13 19 10.5625 19.1875 C8 19 8 19 6 17 C6.2421875 13.9609375 6.2421875 13.9609375 6.875 10.375 C7.07867187 9.18648437 7.28234375 7.99796875 7.4921875 6.7734375 C7.74355469 5.40058594 7.74355469 5.40058594 8 4 C5.03 4 2.06 4 -1 4 C-0.67 2.68 -0.34 1.36 0 0 Z " fill="#FE9740" transform="translate(59,75)"/>
<path d="M0 0 C0.99 0 1.98 0 3 0 C2.979375 1.134375 2.95875 2.26875 2.9375 3.4375 C2.79966611 12.07151977 2.79966611 12.07151977 5.84765625 19.91015625 C7.80921771 21.816365 9.73168593 23.47573428 12 25 C11.67 25.99 11.34 26.98 11 28 C5.89502304 25.61997696 1.87216824 22.95295521 -1 18 C-2.04386023 12.4066377 -1.60270393 6.6231655 -1 1 C-0.67 0.67 -0.34 0.34 0 0 Z " fill="#FC894A" transform="translate(12,36)"/>
<path d="M0 0 C1.11375 0.185625 1.11375 0.185625 2.25 0.375 C1.59 2.685 0.93 4.995 0.25 7.375 C1.9 7.375 3.55 7.375 5.25 7.375 C1.97469104 12.01220719 -1.05435607 16.06042782 -5.75 19.375 C-4.875 13.625 -4.875 13.625 -3.75 11.375 C-5.4 11.375 -7.05 11.375 -8.75 11.375 C-4.9747191 0.67837079 -4.9747191 0.67837079 0 0 Z " fill="#FCD437" transform="translate(74.75,30.625)"/>
<path d="M0 0 C1.32 0 2.64 0 4 0 C4 2.31 4 4.62 4 7 C4.66 7.226875 5.32 7.45375 6 7.6875 C14.01000303 11.19187633 14.01000303 11.19187633 17 14 C17.5 17.8125 17.5 17.8125 17 21 C15.68 21 14.36 21 13 21 C12.96003906 20.24203125 12.92007813 19.4840625 12.87890625 18.703125 C12.23612806 15.74222202 12.23612806 15.74222202 9.27734375 14.296875 C8.17519531 13.78640625 7.07304687 13.2759375 5.9375 12.75 C0.22210427 9.68600679 0.22210427 9.68600679 -0.79296875 6.55078125 C-0.75339383 4.25903352 -0.54455225 2.22358837 0 0 Z " fill="#FD8948" transform="translate(22,36)"/>
<path d="M0 0 C2.5 1.4375 2.5 1.4375 5 4 C5.4451258 7.04256578 5.29359745 9.9465865 5 13 C6.32 13.33 7.64 13.66 9 14 C9 16.31 9 18.62 9 21 C7.68 21.33 6.36 21.66 5 22 C5.05800781 22.60328125 5.11601563 23.2065625 5.17578125 23.828125 C5.31553182 26.30370659 5.35932638 28.5438985 5 31 C2.5 33.5625 2.5 33.5625 0 35 C0 32 0 32 2 29 C1.835 28.360625 1.67 27.72125 1.5 27.0625 C0.8497192 24.38009168 1.60291272 23.30108492 3 21 C3.99 21 4.98 21 6 21 C6 18.69 6 16.38 6 14 C5.01 14 4.02 14 3 14 C0.875 8.375 0.875 8.375 2 5 C0.62831762 2.80961577 0.62831762 2.80961577 -1 1 C-0.67 0.67 -0.34 0.34 0 0 Z " fill="#187CED" transform="translate(49,60)"/>
<path d="M0 0 C13.24035874 -1.0735426 13.24035874 -1.0735426 17.5546875 1.55859375 C19.23541842 3.29162957 20.67756309 4.98289778 22 7 C21.67 7.99 21.34 8.98 21 10 C18.17767665 9.59681095 17.17887164 9.20814154 15.28125 7 C12.25496607 4.34681957 10.22332204 4.40893288 6.25 4.25 C4.49429688 4.16492188 4.49429688 4.16492188 2.703125 4.078125 C1.81109375 4.05234375 0.9190625 4.0265625 0 4 C0 2.68 0 1.36 0 0 Z " fill="#FE8A49" transform="translate(35,15)"/>
<path d="M0 0 C0.99 0 1.98 0 3 0 C3 2.97 3 5.94 3 9 C1.02 9.99 1.02 9.99 -1 11 C-1.9012087 14.45463334 -2 17.41911208 -2 21 C-4 23.25 -4 23.25 -6 25 C-6.99 24.67 -7.98 24.34 -9 24 C-8.505 23.505 -8.01 23.01 -7.5 22.5 C-5.88826062 19.81376769 -5.84304826 18.95439969 -5.9375 15.9375 C-6 12 -6 12 -4 9 C-2.68 9 -1.36 9 0 9 C0 6.03 0 3.06 0 0 Z " fill="#94A0D6" transform="translate(95,37)"/>
<path d="M0 0 C1.67542976 0.28604898 3.34385343 0.61781233 5 1 C5.38218767 2.65614657 5.71395102 4.32457024 6 6 C5 7 5 7 2.5625 7.1875 C0 7 0 7 -2 5 C-1.46428571 1.46428571 -1.46428571 1.46428571 0 0 Z " fill="#88C8F4" transform="translate(67,87)"/>
<path d="M0 0 C0.33 0.66 0.66 1.32 1 2 C0.67 2.66 0.34 3.32 0 4 C-0.06950541 5.54023996 -0.08452357 7.08334988 -0.0625 8.625 C-0.05347656 9.44226563 -0.04445313 10.25953125 -0.03515625 11.1015625 C-0.02355469 11.72804688 -0.01195312 12.35453125 0 13 C0.598125 12.505 1.19625 12.01 1.8125 11.5 C4 10 4 10 7 10 C6.690625 10.598125 6.38125 11.19625 6.0625 11.8125 C4.89790296 14.08956772 4.89790296 14.08956772 4 17 C1.33595424 15.98949988 0.02292172 15.02766415 -1.8125 12.8125 C-3.37263709 9.11743848 -2.92853546 6.85699344 -2 3 C-1.34 2.01 -0.68 1.02 0 0 Z " fill="#2585EB" transform="translate(28,70)"/>
<path d="M0 0 C2.5 0.125 2.5 0.125 3.5 1.125 C3.625 3.625 3.625 3.625 3.5 6.125 C2.5 7.125 2.5 7.125 0 7.25 C-2.5 7.125 -2.5 7.125 -3.5 6.125 C-3.625 3.625 -3.625 3.625 -3.5 1.125 C-2.5 0.125 -2.5 0.125 0 0 Z " fill="#85CBF9" transform="translate(5.5,54.875)"/>
<path d="M0 0 C1.67542976 0.28604898 3.34385343 0.61781233 5 1 C5.625 2.875 5.625 2.875 6 5 C5.34 5.66 4.68 6.32 4 7 C1.375 6.625 1.375 6.625 -1 6 C-1.042721 4.33388095 -1.04063832 2.66617115 -1 1 C-0.67 0.67 -0.34 0.34 0 0 Z " fill="#F88042" transform="translate(35,74)"/>
<path d="M0 0 C-1.63412443 1.70840281 -2.86906094 2.93453047 -5 4 C-5.65213292 6.02463255 -5.65213292 6.02463255 -6 8 C-6.99 8 -7.98 8 -9 8 C-9 6.02 -9 4.04 -9 2 C-3.375 -1.125 -3.375 -1.125 0 0 Z " fill="#98A4D8" transform="translate(84,59)"/>
<path d="M0 0 C-0.33 3.3 -0.66 6.6 -1 10 C-0.34 10.33 0.32 10.66 1 11 C-0.65 10.67 -2.3 10.34 -4 10 C-4.6875 6.6875 -4.6875 6.6875 -5 3 C-3.42599605 0.67647035 -2.82844233 0 0 0 Z " fill="#919DD5" transform="translate(94,26)"/>
<path d="M0 0 C0.66 0 1.32 0 2 0 C2 1.32 2 2.64 2 4 C3.98 4.66 5.96 5.32 8 6 C7.67 6.66 7.34 7.32 7 8 C1.25 7.25 1.25 7.25 -1 5 C-0.625 2.375 -0.625 2.375 0 0 Z " fill="#94A0D6" transform="translate(76,17)"/>
<path d="M0 0 C2.5 1.4375 2.5 1.4375 5 4 C5.4451258 7.04256578 5.29359745 9.9465865 5 13 C3.68 12.01 2.36 11.02 1 10 C1.226875 9.2575 1.45375 8.515 1.6875 7.75 C2.29476698 4.94085007 2.29476698 4.94085007 0.5625 2.6875 C0.046875 2.130625 -0.46875 1.57375 -1 1 C-0.67 0.67 -0.34 0.34 0 0 Z " fill="#1279EC" transform="translate(49,60)"/>
<path d="M0 0 C2.31 1.98 4.62 3.96 7 6 C6.67 6.66 6.34 7.32 6 8 C4.02 7.34 2.04 6.68 0 6 C0 4.02 0 2.04 0 0 Z " fill="#127BEF" transform="translate(39,56)"/>
<path d="M0 0 C-0.33 0.66 -0.66 1.32 -1 2 C-1.99 2 -2.98 2 -4 2 C-4.33 3.32 -4.66 4.64 -5 6 C-5.66 6 -6.32 6 -7 6 C-7 4.35 -7 2.7 -7 1 C-3.375 -1.125 -3.375 -1.125 0 0 Z " fill="#147BED" transform="translate(46,92)"/>
<path d="M0 0 C1.2065625 0.0309375 1.2065625 0.0309375 2.4375 0.0625 C1.4475 0.5575 1.4475 0.5575 0.4375 1.0625 C-0.28943904 3.04138961 -0.96066251 5.04204558 -1.5625 7.0625 C-2.5525 6.7325 -3.5425 6.4025 -4.5625 6.0625 C-3.48963568 0.08511307 -3.48963568 0.08511307 0 0 Z " fill="#FCDC47" transform="translate(74.5625,30.9375)"/>
<path d="M0 0 C1.98 0 3.96 0 6 0 C6 1.32 6 2.64 6 4 C4.02 4 2.04 4 0 4 C0 2.68 0 1.36 0 0 Z " fill="#FE8B4A" transform="translate(35,30)"/>
<path d="M0 0 C1.98 0 3.96 0 6 0 C6 1.32 6 2.64 6 4 C4.02 4 2.04 4 0 4 C0 2.68 0 1.36 0 0 Z " fill="#FE8E49" transform="translate(2,30)"/>
<path d="M0 0 C1.98 0 3.96 0 6 0 C6 1.32 6 2.64 6 4 C4.02 4 2.04 4 0 4 C0 2.68 0 1.36 0 0 Z " fill="#FE8C4A" transform="translate(35,25)"/>
<path d="M0 0 C1.98 0 3.96 0 6 0 C6 1.32 6 2.64 6 4 C4.02 4 2.04 4 0 4 C0 2.68 0 1.36 0 0 Z " fill="#FE8E49" transform="translate(2,25)"/>
<path d="M0 0 C1.98 0 3.96 0 6 0 C6 1.32 6 2.64 6 4 C4.02 4 2.04 4 0 4 C0 2.68 0 1.36 0 0 Z " fill="#FE8C4A" transform="translate(35,20)"/>
<path d="M0 0 C1.98 0 3.96 0 6 0 C6 1.32 6 2.64 6 4 C4.02 4 2.04 4 0 4 C0 2.68 0 1.36 0 0 Z " fill="#FE8F49" transform="translate(2,20)"/>
<path d="M0 0 C1.98 0 3.96 0 6 0 C6 1.32 6 2.64 6 4 C4.02 4 2.04 4 0 4 C0 2.68 0 1.36 0 0 Z " fill="#FE8F49" transform="translate(2,15)"/>
<path d="M0 0 C1.98 0 3.96 0 6 0 C6 1.32 6 2.64 6 4 C4.02 4 2.04 4 0 4 C0 2.68 0 1.36 0 0 Z " fill="#FE8C4B" transform="translate(35,10)"/>
<path d="M0 0 C1.98 0 3.96 0 6 0 C6 1.32 6 2.64 6 4 C4.02 4 2.04 4 0 4 C0 2.68 0 1.36 0 0 Z " fill="#FE8F4A" transform="translate(2,10)"/>
<path d="M0 0 C1.32 0 2.64 0 4 0 C4 1.98 4 3.96 4 6 C2.68 6 1.36 6 0 6 C0 4.02 0 2.04 0 0 Z " fill="#FE9049" transform="translate(22,2)"/>
<path d="M0 0 C0.99 0 1.98 0 3 0 C3 1.98 3 3.96 3 6 C1.68 6 0.36 6 -1 6 C-1.042721 4.33388095 -1.04063832 2.66617115 -1 1 C-0.67 0.67 -0.34 0.34 0 0 Z " fill="#FE8949" transform="translate(28,36)"/>
<path d="M0 0 C1.32 0.33 2.64 0.66 4 1 C4 2.65 4 4.3 4 6 C2.68 6 1.36 6 0 6 C0 4.02 0 2.04 0 0 Z " fill="#FE8A49" transform="translate(17,36)"/>
<path d="M0 0 C1.32 0 2.64 0 4 0 C4 1.98 4 3.96 4 6 C2.68 5.67 1.36 5.34 0 5 C0 3.35 0 1.7 0 0 Z " fill="#FE8750" transform="translate(27,2)"/>
<path d="M0 0 C1.32 0 2.64 0 4 0 C4 1.65 4 3.3 4 5 C2.68 5.33 1.36 5.66 0 6 C0 4.02 0 2.04 0 0 Z " fill="#FE884A" transform="translate(17,2)"/>
<path d="M0 0 C1.32 0 2.64 0 4 0 C4 1.98 4 3.96 4 6 C2.68 5.67 1.36 5.34 0 5 C0 3.35 0 1.7 0 0 Z " fill="#FE874D" transform="translate(11,2)"/>
<path d="M0 0 C1.66611905 -0.042721 3.33382885 -0.04063832 5 0 C6 1 6 1 6.0625 3.5625 C6.041875 4.366875 6.02125 5.17125 6 6 C5.01 6 4.02 6 3 6 C3 4.35 3 2.7 3 1 C2.01 0.67 1.02 0.34 0 0 Z " fill="#5BB8FB" transform="translate(3,55)"/>
<path d="M0 0 C0.99 0.33 1.98 0.66 3 1 C2.67 2.65 2.34 4.3 2 6 C1.01 5.67 0.02 5.34 -1 5 C-0.67 3.35 -0.34 1.7 0 0 Z " fill="#56B8FD" transform="translate(70,88)"/>
<path d="M0 0 C0.99 0 1.98 0 3 0 C2.34 1.32 1.68 2.64 1 4 C-0.32 4 -1.64 4 -3 4 C-1.6875 2 -1.6875 2 0 0 Z " fill="#98A2D4" transform="translate(32,80)"/>
</svg>
