<?xml version="1.0" encoding="UTF-8"?>
<svg version="1.1" xmlns="http://www.w3.org/2000/svg" width="191" height="268">
<path d="M0 0 C3.19004804 0.41974316 4.53798083 0.3300137 7.1875 -1.5625 C11.52185866 -3.77783887 15.32057971 -2.8122496 20 -2 C21.02673828 -1.82791016 21.02673828 -1.82791016 22.07421875 -1.65234375 C31.65234535 0.34876586 40.49102376 5.22501921 46.125 13.25 C49.69766405 18.85633436 51.69985968 24.08350092 52.75 30.625 C53.84358167 35.89407532 56.77642761 37.97097334 61 41 C70.45229039 48.28488622 75.09643022 57.23865813 77 69 C77.81900294 83.37980169 76.73171219 96.57353721 67 108 C62.97504497 111.45313383 58.75611537 114.62194232 54 117 C53.65068596 119.26009169 53.39746091 121.53523165 53.1875 123.8125 C51.95043112 134.64105386 48.56914719 144.77281359 40 152 C31.19635299 158.01993931 20.77458015 162.11461174 10 161 C8.7315625 160.2265625 8.7315625 160.2265625 7.4375 159.4375 C3.97643639 157.39635992 1.82628983 158.09560422 -2 159 C-2.639375 159.350625 -3.27875 159.70125 -3.9375 160.0625 C-9.7458195 162.70264523 -15.26087411 160.78599374 -21 158.875 C-26.81277768 156.66031309 -31.48569349 154.2809828 -36 150 C-36.62519531 149.41476563 -37.25039063 148.82953125 -37.89453125 148.2265625 C-44.77424011 141.12959967 -46.85230806 133.35331895 -47.6875 123.6875 C-48.2057081 118.86609269 -48.2057081 118.86609269 -50.875 115.0234375 C-53.19671449 113.55667869 -55.57646644 112.28936761 -58 111 C-66.81551009 104.22689522 -70.27068509 94.58443036 -71.72265625 83.83984375 C-73.036589 70.38591258 -70.44821454 58.36330167 -63 47 C-58.56142011 42.40240557 -54.00967755 39.18144879 -48 37 C-47.97421875 36.32195312 -47.9484375 35.64390625 -47.921875 34.9453125 C-47.16629729 22.54696921 -43.15755298 14.47977357 -34 6 C-25.05358901 -0.82163838 -10.30150108 -6.86766738 0 0 Z M5 4 C4.82590412 8.98029015 4.69944997 13.95878001 4.61547852 18.94140625 C4.58044957 20.63312663 4.53280856 22.32463774 4.47192383 24.015625 C3.70100136 35.32307626 3.70100136 35.32307626 8.40234375 45.15625 C10.82552078 47.51749426 10.82552078 47.51749426 14 48 C14.37125 48.8971875 14.37125 48.8971875 14.75 49.8125 C16.16370012 52.28647521 17.65055383 53.43370255 20 55 C20 54.34 20 53.68 20 53 C20.94875 53.66 21.8975 54.32 22.875 55 C25.66238955 57.17968457 25.66238955 57.17968457 28 57 C27.125 64.875 27.125 64.875 26 66 C23.0625 66.1875 23.0625 66.1875 20 66 C18 64 18 64 17.2890625 60.80859375 C16.02483534 56.0374351 12.90070629 53.34336557 9.375 50.0625 C8.76398438 49.47404297 8.15296875 48.88558594 7.5234375 48.27929688 C6.02681108 46.84113243 4.51490886 45.41889351 3 44 C-1.18013628 47.54402859 -5.32438714 51.1283544 -9.4375 54.75 C-10.30246094 55.50796875 -11.16742188 56.2659375 -12.05859375 57.046875 C-14.23499196 58.77743344 -14.23499196 58.77743344 -14 61 C-15.32 60.67 -16.64 60.34 -18 60 C-16.41547369 56.06184982 -13.68495679 53.45645895 -10.6875 50.5625 C-10.21376953 50.09779297 -9.74003906 49.63308594 -9.25195312 49.15429688 C-6.96047662 46.90670638 -4.69353532 44.74925617 -2.20703125 42.71484375 C0.9119637 38.87820395 0.90750834 35.83511182 1 31 C1.0311792 29.43548096 1.0311792 29.43548096 1.06298828 27.83935547 C1.09829239 24.3711 1.08745194 20.9058195 1.0625 17.4375 C1.05798828 16.23802734 1.05347656 15.03855469 1.04882812 13.80273438 C1.03713769 10.86843641 1.02075138 7.93424551 1 5 C-4.21815064 2.16323713 -7.1827169 1.60560793 -13 2 C-15.73503355 4.73503355 -14.54953205 12.10645429 -14.61132812 15.76879883 C-14.47366875 24.55730232 -12.00160594 28.60989725 -6 35 C-6 35.66 -6 36.32 -6 37 C-8.53910197 36.61479436 -9.72751123 36.29902057 -11.484375 34.37109375 C-11.90203125 33.73300781 -12.3196875 33.09492187 -12.75 32.4375 C-13.17796875 31.79683594 -13.6059375 31.15617187 -14.046875 30.49609375 C-14.51867187 29.75552734 -14.51867187 29.75552734 -15 29 C-15.763125 29.763125 -16.52625 30.52625 -17.3125 31.3125 C-18.199375 32.199375 -19.08625 33.08625 -20 34 C-20.53625 34.5775 -21.0725 35.155 -21.625 35.75 C-23 37 -23 37 -26 38 C-25.43137177 34.33995635 -24.08529084 33.04981867 -21.4375 30.5625 C-15.46421831 23.37018123 -17.45349656 12.78128934 -18 4 C-26.38707571 5.03633407 -32.61408305 9.65843426 -37.7890625 16.234375 C-41.96749339 22.32679681 -43.78142317 29.65165513 -44 37 C-42.51037817 40.29059127 -42.51037817 40.29059127 -40 42 C-39.34 42 -38.68 42 -38 42 C-38 42.66 -38 43.32 -38 44 C-37.34 44.66 -36.68 45.32 -36 46 C-34 48 -34 48 -34 50 C-38.73358822 48.70902139 -41.22719461 45.96158457 -44.44921875 42.4609375 C-45.8875333 40.77143075 -45.8875333 40.77143075 -48 41 C-48.33 41.66 -48.66 42.32 -49 43 C-49.70125 43.226875 -50.4025 43.45375 -51.125 43.6875 C-57.15141325 46.43868866 -61.46047843 51.65257065 -64.15625 57.63671875 C-66.98346469 65.55553769 -68.68901081 73.59406817 -68 82 C-67.34 82.66 -66.68 83.32 -66 84 C-59.94395147 82.10748483 -57.0804484 79.15826724 -53.04296875 74.33984375 C-50.542951 71.4765347 -47.7890396 69.08925302 -44.8984375 66.6328125 C-42.09473549 64.22139801 -39.51967268 61.70864813 -37 59 C-37 58.34 -37 57.68 -37 57 C-36.34 57 -35.68 57 -35 57 C-34.34 55.35 -33.68 53.7 -33 52 C-31.68 52.66 -30.36 53.32 -29 54 C-29.309375 54.598125 -29.61875 55.19625 -29.9375 55.8125 C-31.10209704 58.08956772 -31.10209704 58.08956772 -32 61 C-32.66 61 -33.32 61 -34 61 C-34 61.66 -34 62.32 -34 63 C-34.66 63 -35.32 63 -36 63 C-36 63.66 -36 64.32 -36 65 C-37.98 65.99 -37.98 65.99 -40 67 C-39.34 67.33 -38.68 67.66 -38 68 C-38.12375 68.86625 -38.2475 69.7325 -38.375 70.625 C-37.90583744 74.84746308 -36.52443382 75.93293268 -33.41015625 78.60546875 C-32 80 -32 80 -31 83 C-35.06498881 81.62815653 -37.67396561 79.77931541 -40.8125 76.875 C-41.60269531 76.15054688 -42.39289062 75.42609375 -43.20703125 74.6796875 C-43.79871094 74.12539062 -44.39039062 73.57109375 -45 73 C-52.15801225 78.82628904 -58.52591766 85.4382985 -65 92 C-62.25918816 101.01650251 -57.00409218 107.06784085 -49 112 C-47.515 112.495 -47.515 112.495 -46 113 C-46 112.34 -46 111.68 -46 111 C-45.38125 110.814375 -44.7625 110.62875 -44.125 110.4375 C-41.71289221 109.04458162 -41.71289221 109.04458162 -40.3125 105.875 C-39.60911517 102.11652904 -39.60911517 102.11652904 -41.40625 99.8671875 C-42.66270896 98.47169414 -43.96119375 97.11277628 -45.30078125 95.796875 C-47 94 -47 94 -48 91 C-44.61735646 92.09438468 -42.75792352 93.21632366 -40.0625 95.625 C-37.22874716 98.1812531 -37.22874716 98.1812531 -34 98.625 C-29.76009796 97.74168708 -28.02341084 96.09539681 -25 93 C-25 92.01 -25 91.02 -25 90 C-23.68 90.33 -22.36 90.66 -21 91 C-21.50148516 95.15871516 -23.65062417 96.84190345 -26.69140625 99.5625 C-28.10776367 100.88314453 -28.10776367 100.88314453 -29.55273438 102.23046875 C-31.04990812 103.61687658 -32.55312837 104.99172551 -34.08276367 106.34228516 C-40.39216124 111.78772178 -40.39216124 111.78772178 -43.69140625 119.17211914 C-43.75624754 125.76110899 -43.24436843 134.56130742 -38.5 139.58984375 C-37.02380749 140.75731331 -35.51350341 141.88132357 -34 143 C-33.63837971 144.32594105 -33.30271961 145.65938457 -33 147 C-30.91170257 149.50397498 -30.91170257 149.50397498 -28 151 C-23.08359414 150.37237372 -20.59899534 147.92934772 -17.4921875 144.33984375 C-15.71821395 142.74698268 -14.32216393 142.40363794 -12 142 C-12.34879632 145.25543229 -13.02133261 146.01873107 -15.5625 148.25 C-16.366875 148.8275 -17.17125 149.405 -18 150 C-17.67 150.66 -17.34 151.32 -17 152 C-16.34 151.67 -15.68 151.34 -15 151 C-14.34 152.65 -13.68 154.3 -13 156 C-8.28976797 156.44158425 -4.1692367 155.12358318 0 153 C1.59142848 149.81714304 1.00008284 146.4129558 0.87890625 142.9296875 C0.85529526 142.13345978 0.83168427 141.33723206 0.80735779 140.51687622 C0.73067789 137.96940471 0.64667239 135.4222339 0.5625 132.875 C0.50928363 131.14975438 0.4565432 129.42449402 0.40429688 127.69921875 C0.27505693 123.46595478 0.13924581 119.23294618 0 115 C-0.99 115 -1.98 115 -3 115 C-3.33 114.34 -3.66 113.68 -4 113 C-8.72346702 116.91188875 -8.72346702 116.91188875 -10.6875 122.5 C-9.79671406 127.03491023 -8.11521266 128.65114639 -5 132 C-5 132.66 -5 133.32 -5 134 C-9.98012761 132.49087042 -13.24259942 129.44338151 -17 126 C-17.47050781 126.49371094 -17.94101563 126.98742187 -18.42578125 127.49609375 C-19.04839844 128.13675781 -19.67101562 128.77742188 -20.3125 129.4375 C-21.23482422 130.39462891 -21.23482422 130.39462891 -22.17578125 131.37109375 C-24 133 -24 133 -27 134 C-26.34 131.69 -25.68 129.38 -25 127 C-24.34 127 -23.68 127 -23 127 C-20.83333333 125.16666667 -20.83333333 125.16666667 -19 123 C-19 122.34 -19 121.68 -19 121 C-18.40058594 120.73832031 -17.80117187 120.47664063 -17.18359375 120.20703125 C-14.86938236 118.92779812 -13.70340555 117.73749558 -12.0625 115.6875 C-8.90324426 111.8518293 -5.57451644 108.31209703 -1.75 105.125 C1.48206054 101.20035506 1.16551011 96.55021429 0.8125 91.6875 C0.4103125 89.8621875 0.4103125 89.8621875 0 88 C-1.9795247 86.73620272 -1.9795247 86.73620272 -4 86 C-4.55429688 86.433125 -5.10859375 86.86625 -5.6796875 87.3125 C-6.40414062 87.869375 -7.12859375 88.42625 -7.875 89 C-8.59429687 89.556875 -9.31359375 90.11375 -10.0546875 90.6875 C-12 92 -12 92 -14 92 C-11.73223645 87.46447291 -8.48509177 84.39287028 -4.83984375 80.96484375 C-3.05014105 79.05354766 -2.02772246 77.39091908 -1 75 C-1.5053125 74.51789063 -2.010625 74.03578125 -2.53125 73.5390625 C-3.50578125 72.59160156 -3.50578125 72.59160156 -4.5 71.625 C-5.1496875 70.99851562 -5.799375 70.37203125 -6.46875 69.7265625 C-8 68 -8 68 -8 66 C-4.43410094 67.04879384 -2.52389067 68.39078053 -0.125 71.125 C2.34336832 73.72696558 2.83517075 73.97442305 6.625 74.5625 C10.15594319 73.97400947 11.256346 73.10346806 14 71 C18.41025641 71.41025641 18.41025641 71.41025641 20 73 C20.25 76.4375 20.25 76.4375 20 80 C17 82 17 82 14.5625 81.75 C12.18047686 81.05282249 10.16453858 80.20252143 8 79 C8.33 79.99 8.66 80.98 9 82 C7.68 82.33 6.36 82.66 5 83 C5 92.9 5 102.8 5 113 C5.33 112.34 5.66 111.68 6 111 C6.33 111.66 6.66 112.32 7 113 C9.77109307 113.05392397 12.54113818 113.09363455 15.3125 113.125 C16.49102539 113.15013672 16.49102539 113.15013672 17.69335938 113.17578125 C18.8293457 113.18544922 18.8293457 113.18544922 19.98828125 113.1953125 C20.68477783 113.20578613 21.38127441 113.21625977 22.09887695 113.22705078 C24.331173 113.10574595 24.331173 113.10574595 27 111 C30.1875 110.875 30.1875 110.875 33 111 C34.125 113.25 34.125 113.25 35 116 C34.125 118.3125 34.125 118.3125 33 120 C26.25 120.125 26.25 120.125 24 119 C24 119.66 24 120.32 24 121 C23.34 120.67 22.68 120.34 22 120 C22.33 119.34 22.66 118.68 23 118 C18.05 118 13.1 118 8 118 C7.505 119.485 7.505 119.485 7 121 C6.01 121.495 6.01 121.495 5 122 C4.97534119 125.96930989 4.95715977 129.93859034 4.94506836 133.90795898 C4.94002943 135.25920386 4.93319823 136.61044326 4.92456055 137.96166992 C4.91247581 139.90020434 4.90730172 141.838778 4.90234375 143.77734375 C4.89448853 145.52905884 4.89448853 145.52905884 4.88647461 147.31616211 C4.69338505 149.91891551 4.69338505 149.91891551 6 151 C5.67 151.66 5.34 152.32 5 153 C6.0725 153.66 7.145 154.32 8.25 155 C8.85328125 155.37125 9.4565625 155.7425 10.078125 156.125 C12.25479385 157.27624023 12.25479385 157.27624023 16 157 C15.67 156.34 15.34 155.68 15 155 C15.66 154.01 16.32 153.02 17 152 C17.45902139 146.95076469 17.00570786 144.92048851 14 141 C14.125 138.375 14.125 138.375 15 136 C18 134 18 134 20.625 134.3125 C23 135 23 135 24 136 C24.04092937 138.33297433 24.04241723 140.66705225 24 143 C23.34 143.33 22.68 143.66 22 144 C22 144.63808594 22 145.27617187 22 145.93359375 C22 148.62239583 22 151.31119792 22 154 C24.88590293 155.30634354 24.88590293 155.30634354 27.26953125 154.1796875 C37.01815722 149.17808831 42.6004682 144.17904097 47 134 C48.01229093 130.67872168 48.68476658 127.45669746 49 124 C49.165 122.91847656 49.33 121.83695312 49.5 120.72265625 C48.75196476 115.15330015 45.52486896 112.52687829 41.625 108.6875 C40.92632812 107.97271484 40.22765625 107.25792969 39.5078125 106.52148438 C37.68748223 104.66439744 35.84984616 102.82760296 34 101 C33.34 100.34 32.68 99.68 32 99 C30.01178687 98.60235737 28.01055661 98.26224651 26 98 C24.875 91.25 24.875 91.25 26 89 C28.3125 88.125 28.3125 88.125 31 88 C33.25 89.625 33.25 89.625 35 92 C35.11601563 92.77214844 35.23203125 93.54429687 35.3515625 94.33984375 C37.20094581 101.92677166 46.11463766 108.24162193 52 113 C52 112.34 52 111.68 52 111 C52.74121094 110.89945312 53.48242188 110.79890625 54.24609375 110.6953125 C59.93269101 109.25954752 64.40989042 104.36059941 67.5 99.5 C69.1278562 95.70166886 69.33375597 93.08851068 69 89 C65.8277086 87.4138543 62.45562716 87.57841349 59 88 C57.65724831 88.98731742 56.32267727 89.98594743 55 91 C49.57446809 90.57446809 49.57446809 90.57446809 48 89 C47.8125 86.0625 47.8125 86.0625 48 83 C50 81 50 81 52.5 80.75 C55 81 55 81 57 83 C60.02852141 84.02261762 62.94218282 84.19299432 66.125 84.25 C66.99382812 84.27578125 67.86265625 84.3015625 68.7578125 84.328125 C69.49773437 84.21984375 70.23765625 84.1115625 71 84 C74.02356662 79.46465006 73.55494911 74.89913072 72.546875 69.6328125 C72.07621187 67.74343621 71.54388744 65.86961306 71 64 C66.55998793 62.83983968 62.34525012 63.01305135 57.8125 63.3125 C57.08869141 63.34794922 56.36488281 63.38339844 55.61914062 63.41992188 C51.35036551 63.57180554 51.35036551 63.57180554 48 66 C44.4375 66.1875 44.4375 66.1875 41 66 C40 65 40 65 39.9375 61.4375 C39.958125 60.303125 39.97875 59.16875 40 58 C42.1875 56.8125 42.1875 56.8125 45 56 C45.721875 56.474375 46.44375 56.94875 47.1875 57.4375 C50.7726553 59.42925294 53.83350518 59.33599837 57.8125 59.1875 C58.50537109 59.17396484 59.19824219 59.16042969 59.91210938 59.14648438 C61.60841265 59.11138845 63.30431136 59.05758943 65 59 C65 58.34 65 57.68 65 57 C65.99 56.67 66.98 56.34 68 56 C63.79162347 48.81069009 58.22402113 43.3406634 50.27880859 40.54663086 C46.07360183 39.53790384 41.97090183 39.83417124 37.6875 40.125 C36.79482422 40.16109375 35.90214844 40.1971875 34.98242188 40.234375 C29.30799483 40.55868627 29.30799483 40.55868627 25 44 C21.8125 43.6875 21.8125 43.6875 19 43 C17.75 36.375 17.75 36.375 20 33 C23.10494126 32.68154449 25.01726077 33.00575359 28 34 C28 34.66 28 35.32 28 36 C28.99 35.67 29.98 35.34 31 35 C31.66 35.33 32.32 35.66 33 36 C35.37402501 36.07116382 37.75000677 36.08409085 40.125 36.0625 C41.40632813 36.05347656 42.68765625 36.04445312 44.0078125 36.03515625 C44.99523437 36.02355469 45.98265625 36.01195312 47 36 C48.71769198 28.66077065 46.84094313 23.40915394 43.3125 16.875 C38.11054477 10.40770431 32.95477885 6.41484358 25 4 C25 7.3 25 10.6 25 14 C25.99 14.495 25.99 14.495 27 15 C27.99444068 18.34493684 28.10348268 20.68955197 27 24 C23.625 24.625 23.625 24.625 20 25 C18 23 18 23 17.6875 20.1875 C18 17 18 17 19.5625 14.75 C21.772147 10.52284921 20.73972965 6.58988882 20 2 C18.2365625 1.6596875 18.2365625 1.6596875 16.4375 1.3125 C15.77621094 1.18488281 15.11492187 1.05726562 14.43359375 0.92578125 C10.9095898 1.03325489 8.18943016 2.57542042 5 4 Z M-67 85 C-66 87 -66 87 -66 87 Z M51 85 C52 87 52 87 52 87 Z M18 138 C18.33 138.99 18.66 139.98 19 141 C19 140.01 19 139.02 19 138 C18.67 138 18.34 138 18 138 Z " fill="#f33661" transform="translate(84,59)"/>
<path d="M0 0 C1.9375 0.375 1.9375 0.375 4 1 C4.33 1.66 4.66 2.32 5 3 C2.525 2.01 2.525 2.01 0 1 C0 0.67 0 0.34 0 0 Z " fill="#f33661" transform="translate(100,127)"/>
<path d="M0 0 C0.33 0 0.66 0 1 0 C1 1.65 1 3.3 1 5 C0.34 3.68 -0.32 2.36 -1 1 C-0.67 0.67 -0.34 0.34 0 0 Z " fill="#f33661" transform="translate(21,150)"/>
<path d="M0 0 C0.99 0.33 1.98 0.66 3 1 C2.01 1.33 1.02 1.66 0 2 C0 1.34 0 0.68 0 0 Z " fill="#f33661" transform="translate(67,90)"/>
<path d="M0 0 C0.66 0.66 1.32 1.32 2 2 C1.01 1.67 0.02 1.34 -1 1 C-0.67 0.67 -0.34 0.34 0 0 Z " fill="#f33661" transform="translate(86,104)"/>
<path d="M0 0 C2 1 2 1 2 1 Z " fill="#f33661" transform="translate(109,211)"/>
<path d="" fill="#f33661" transform="translate(0,0)"/>
<path d="" fill="#f33661" transform="translate(0,0)"/>
<path d="" fill="#f33661" transform="translate(0,0)"/>
<path d="" fill="#f33661" transform="translate(0,0)"/>
<path d="" fill="#f33661" transform="translate(0,0)"/>
<path d="" fill="#f33661" transform="translate(0,0)"/>
<path d="" fill="#f33661" transform="translate(0,0)"/>
<path d="" fill="#f33661" transform="translate(0,0)"/>
<path d="" fill="#f33661" transform="translate(0,0)"/>
<path d="" fill="#f33661" transform="translate(0,0)"/>
<path d="" fill="#f33661" transform="translate(0,0)"/>
<path d="" fill="#f33661" transform="translate(0,0)"/>
<path d="" fill="#f33661" transform="translate(0,0)"/>
<path d="" fill="#f33661" transform="translate(0,0)"/>
<path d="" fill="#f33661" transform="translate(0,0)"/>
<path d="" fill="#f33661" transform="translate(0,0)"/>
<path d="" fill="#f33661" transform="translate(0,0)"/>
<path d="" fill="#f33661" transform="translate(0,0)"/>
</svg>
